<!-- Generator: Adobe Illustrator 18.1.1, SVG Export Plug-In  -->
<svg version="1.1"
   xmlns="http://www.w3.org/2000/svg" xmlns:xlink="http://www.w3.org/1999/xlink" xmlns:a="http://ns.adobe.com/AdobeSVGViewerExtensions/3.0/"
   x="0px" y="0px" width="244.8px" height="52.1px" viewBox="0 0 244.8 52.1" enable-background="new 0 0 244.8 52.1"
   xml:space="preserve">
<defs>
</defs>
<g>
  <path fill="#017DC6" d="M0,27c0-2.7,0.8-4.6,2.5-5.9c1.7-1.3,3.6-1.9,5.8-1.9c3.5,0,5.9,1,7.5,2.9v-2.2c0-1-0.4-1.8-1.3-2.4
    c-0.9-0.6-2.1-0.9-3.6-0.9c-2.5,0-4.7,0.8-6.8,2.3l-2.9-5.2c2.9-2.7,6.6-4,11-4c1.5,0,2.9,0.2,4.2,0.5c1.3,0.3,2.5,0.8,3.5,1.5
    c1.1,0.7,1.9,1.7,2.5,3c0.6,1.3,0.9,2.9,0.9,4.7v15.1h-7.7V32c-0.8,0.9-1.8,1.6-3.2,2.2C11.3,34.7,9.8,35,8.3,35
    c-2.1,0-4-0.7-5.7-2.1C0.9,31.5,0,29.5,0,27z M8.8,25c-0.7,0.5-1.1,1.2-1.1,2.1c0,0.9,0.4,1.6,1.1,2.1c0.7,0.5,1.6,0.7,2.7,0.7
    c2.1,0,3.5-0.6,4.3-1.8V26c-0.8-1.1-2.2-1.7-4.3-1.7C10.4,24.3,9.5,24.5,8.8,25z"/>
  <path fill="#017DC6" d="M25.2,17.1v-6.9h4V3.9h7.7v6.3h4.9v6.9h-4.9v8.6c0,0.7,0.2,1.2,0.6,1.7c0.4,0.4,0.9,0.7,1.5,0.7
    c1,0,1.6-0.2,2-0.6l1.5,5.9c-1.1,1.1-3,1.6-5.7,1.6c-2.5,0-4.3-0.6-5.6-1.8c-1.3-1.2-1.9-2.9-1.9-5.2V17.1H25.2z"/>
  <path fill="#017DC6" d="M43.5,22.2c0-3.6,1.2-6.6,3.6-9c2.4-2.4,5.5-3.6,9.2-3.6c3.6,0,6.6,1.2,8.9,3.7c2.3,2.4,3.5,5.7,3.5,9.8
    v1.8H51.5c0.3,1.2,1,2.1,2,2.9c1,0.7,2.4,1.1,4.1,1.1c0.9,0,2-0.2,3.1-0.6c1.2-0.4,2.1-0.9,2.7-1.5l3.4,5.1c-1.2,1-2.7,1.8-4.5,2.4
    c-1.8,0.6-3.7,0.8-5.6,0.8c-3.8,0-6.9-1.2-9.4-3.5S43.5,26.1,43.5,22.2z M51.4,19.6h9.9c-0.1-1-0.6-1.9-1.4-2.6
    c-0.8-0.8-2-1.1-3.6-1.1c-1.5,0-2.7,0.4-3.5,1.1C52,17.6,51.6,18.5,51.4,19.6z"/>
  <path fill="#017DC6" d="M74.2,31.4c-2.5-2.4-3.8-5.4-3.8-9.1s1.3-6.7,3.8-9.1c2.5-2.4,5.7-3.6,9.5-3.6c2.4,0,4.4,0.4,6.1,1.3
    c1.7,0.9,2.9,2,3.8,3.2l-5,4.6c-1-1.5-2.5-2.3-4.6-2.3c-1.6,0-3,0.5-4,1.5c-1.1,1-1.6,2.4-1.6,4.2s0.5,3.2,1.6,4.2
    c1.1,1,2.4,1.6,4,1.6c-0.3,6.9,0,0-0.3,6.9C79.9,35,76.8,33.8,74.2,31.4z"/>
  <path fill="#017DC6" d="M95.5,34.3V1h7.7v12.2c2-2.4,4.8-3.6,8.3-3.6c2.7,0,4.7,0.7,6,2c1.3,1.4,2,3.2,2,5.5v17.2h-7.7v-14
    c0-2.6-1.3-3.9-4-3.9c-1.8,0-3.4,0.8-4.7,2.3v15.5H95.5z"/>
</g>
<g>
  <path d="M125.8,33.3V9.2h2.6v3.6c0.6-1,1.7-1.9,3.2-2.8c1.5-0.9,3.1-1.4,4.6-1.4c1.8,0,3.2,0.4,4.2,1.3c1,0.9,1.7,2,2.1,3.3
    c0.7-1.2,1.8-2.3,3.3-3.2c1.5-0.9,3.1-1.4,4.7-1.4c4.4,0,6.6,2.4,6.6,7.3v17.4h-2.6V16.5c0-3.7-1.6-5.5-4.8-5.5
    c-1.3,0-2.6,0.4-3.9,1.2c-1.3,0.8-2.3,1.8-3,2.9v18.3h-2.6V16.5c0-3.7-1.6-5.5-4.8-5.5c-1.3,0-2.6,0.4-3.9,1.2
    c-1.3,0.8-2.3,1.8-3.1,2.9v18.3H125.8z"/>
  <path d="M162.6,21.2c0-3.5,1.1-6.5,3.3-9c2.2-2.4,4.9-3.7,8.3-3.7c3.5,0,6.3,1.2,8.3,3.6c2,2.4,3,5.5,3,9.2v0.7h-20.2
    c0.1,2.7,1,5,2.8,6.8c1.7,1.8,3.9,2.7,6.7,2.7c3.2,0,5.9-1.1,7.9-3.3l1.3,1.7c-2.5,2.6-5.6,4-9.4,4c-3.5,0-6.4-1.2-8.6-3.6
    S162.6,25,162.6,21.2z M165.4,20H183c0-2.3-0.8-4.4-2.3-6.3c-1.5-1.9-3.7-2.8-6.5-2.8c-2.6,0-4.7,0.9-6.3,2.8
    C166.3,15.6,165.5,17.7,165.4,20z"/>
  <path d="M189.7,21.3c0-3.8,1-6.9,3-9.2c2-2.3,4.6-3.5,7.8-3.5c1.7,0,3.3,0.4,4.7,1.2c1.5,0.8,2.7,1.9,3.6,3.3V0h2.6v33.3h-2.6v-3.8
    c-0.9,1.3-2.1,2.4-3.6,3.2c-1.5,0.8-3.1,1.3-4.8,1.3c-3.2,0-5.8-1.1-7.8-3.5C190.7,28.2,189.7,25.1,189.7,21.3z M194.7,13.9
    c-1.5,2-2.3,4.4-2.3,7.4c0,3,0.8,5.5,2.3,7.4s3.6,2.9,6.2,2.9c1.6,0,3.2-0.4,4.7-1.2c1.5-0.8,2.6-1.8,3.3-3.1v-12
    c-0.7-1.2-1.8-2.3-3.3-3.1c-1.5-0.9-3-1.3-4.7-1.3C198.3,10.9,196.3,11.9,194.7,13.9z"/>
  <path d="M217.3,4.8c-0.4-0.4-0.6-0.9-0.6-1.4s0.2-1,0.6-1.4c0.4-0.4,0.9-0.6,1.4-0.6c0.6,0,1,0.2,1.4,0.6c0.4,0.4,0.6,0.8,0.6,1.4
    c0,0.6-0.2,1-0.6,1.4c-0.4,0.4-0.9,0.6-1.4,0.6C218.1,5.4,217.7,5.2,217.3,4.8z M217.4,33.3V9.2h2.6v24.1H217.4z"/>
  <path d="M225.5,25.9c0-2.5,0.8-4.5,2.5-5.9c1.7-1.4,3.7-2.1,5.9-2.1c3.4,0,6.1,1.1,8.2,3.4v-4.9c0-1.7-0.6-3.1-1.8-4.1
    s-2.8-1.5-4.6-1.5c-3,0-5.5,1.2-7.6,3.5l-1.4-1.8c2.5-2.7,5.6-4.1,9.3-4.1c2.6,0,4.7,0.7,6.3,2c1.6,1.3,2.4,3.2,2.4,5.8v17h-2.6
    v-2.9c-2.1,2.3-4.8,3.5-8.2,3.5c-2.2,0-4.2-0.7-5.9-2.2C226.4,30.3,225.5,28.4,225.5,25.9z M230.1,21.6c-1.2,1.1-1.8,2.6-1.8,4.3
    s0.6,3.2,1.8,4.3s2.8,1.7,4.8,1.7c3.2,0,5.6-1.1,7.3-3.3v-5.3c-1.7-2.2-4.1-3.3-7.3-3.3C232.9,19.9,231.3,20.5,230.1,21.6z"/>
</g>
<circle fill="#017DC6" cx="84.5" cy="22.3" r="3.5"/>
<g>
  <path d="M38,52v-6.3h2.6c0.6,0,1.1,0.2,1.5,0.6c0.4,0.4,0.5,0.8,0.5,1.4c0,0.5-0.2,1-0.5,1.4c-0.4,0.4-0.8,0.6-1.5,0.6h-1.8V52H38z
     M38.8,48.8h1.7c0.4,0,0.7-0.1,0.9-0.3c0.2-0.2,0.4-0.5,0.4-0.9c0-0.4-0.1-0.6-0.4-0.9c-0.2-0.2-0.5-0.3-0.9-0.3h-1.7V48.8z"/>
  <path d="M45,49.6v-3.9h0.8v3.9c0,0.6,0.2,1.1,0.5,1.4s0.8,0.5,1.3,0.5s1-0.2,1.3-0.5c0.3-0.3,0.5-0.8,0.5-1.4v-3.9h0.8v3.9
    c0,0.8-0.2,1.4-0.7,1.9c-0.4,0.5-1.1,0.7-1.9,0.7c-0.8,0-1.5-0.2-1.9-0.7C45.2,51,45,50.4,45,49.6z"/>
  <path d="M53,52v-6.3h2.6c0.6,0,1.1,0.2,1.4,0.5c0.4,0.3,0.6,0.8,0.6,1.4c0,0.5-0.2,1-0.5,1.3s-0.7,0.5-1.2,0.5l1.7,2.6h-0.9
    l-1.6-2.5h-1.3V52H53z M53.8,48.8h1.7c0.4,0,0.7-0.1,0.9-0.3c0.2-0.2,0.4-0.5,0.4-0.9c0-0.4-0.1-0.7-0.4-0.9
    c-0.2-0.2-0.5-0.3-0.9-0.3h-1.7V48.8z"/>
  <path d="M59.5,45.7h0.9l2.1,5.5l2.1-5.5h0.9L63,52h-1L59.5,45.7z"/>
  <path d="M67.8,52v-6.3h4.2v0.7h-3.4v2h3.3v0.7h-3.3v2.2h3.4V52H67.8z"/>
  <path d="M73.9,45.7h0.9l2,3l2-3h0.9l-2.5,3.7V52h-0.8v-2.7L73.9,45.7z"/>
  <path d="M82.1,51.2c-0.6-0.6-0.9-1.4-0.9-2.4c0-0.9,0.3-1.7,0.9-2.4c0.6-0.6,1.3-0.9,2.3-0.9c0.9,0,1.7,0.3,2.3,0.9
    c0.6,0.6,0.9,1.4,0.9,2.4c0,0.9-0.3,1.7-0.9,2.4c-0.6,0.6-1.3,0.9-2.3,0.9C83.5,52.1,82.7,51.8,82.1,51.2z M82.1,48.8
    c0,0.7,0.2,1.4,0.6,1.9c0.4,0.5,1,0.7,1.7,0.7c0.7,0,1.3-0.2,1.7-0.7c0.4-0.5,0.6-1.1,0.6-1.9c0-0.8-0.2-1.4-0.6-1.9
    c-0.4-0.5-1-0.7-1.7-0.7c-0.7,0-1.3,0.2-1.7,0.7C82.3,47.5,82.1,48.1,82.1,48.8z"/>
  <path d="M90.2,52v-6.3h2.6c0.6,0,1.1,0.2,1.4,0.5c0.4,0.3,0.6,0.8,0.6,1.4c0,0.5-0.2,1-0.5,1.3s-0.7,0.5-1.2,0.5l1.7,2.6h-0.9
    l-1.6-2.5H91V52H90.2z M91,48.8h1.7c0.4,0,0.7-0.1,0.9-0.3c0.2-0.2,0.4-0.5,0.4-0.9c0-0.4-0.1-0.7-0.4-0.9
    c-0.2-0.2-0.5-0.3-0.9-0.3H91V48.8z"/>
  <path d="M97,51.1l0.5-0.6c0.5,0.6,1.2,0.9,2,0.9c0.5,0,0.9-0.1,1.1-0.3c0.2-0.2,0.4-0.5,0.4-0.8c0-0.3-0.1-0.5-0.4-0.7
    c-0.3-0.2-0.6-0.3-0.9-0.4c-0.4-0.1-0.7-0.2-1.1-0.3c-0.4-0.1-0.7-0.3-0.9-0.5c-0.3-0.3-0.4-0.6-0.4-1c0-0.5,0.2-0.9,0.6-1.3
    c0.4-0.3,0.9-0.5,1.6-0.5c0.9,0,1.7,0.3,2.2,0.9l-0.5,0.6c-0.4-0.5-1.1-0.8-1.8-0.8c-0.4,0-0.7,0.1-0.9,0.3
    C98.1,46.7,98,47,98,47.3c0,0.2,0.1,0.4,0.3,0.6c0.2,0.1,0.4,0.3,0.7,0.3c0.3,0.1,0.6,0.2,0.9,0.3c0.3,0.1,0.6,0.2,0.9,0.3
    c0.3,0.1,0.5,0.3,0.7,0.6c0.2,0.3,0.3,0.6,0.3,0.9c0,0.5-0.2,1-0.6,1.3c-0.4,0.4-1,0.5-1.8,0.5C98.4,52.1,97.6,51.8,97,51.1z"/>
  <path d="M108.8,51.2c-0.6-0.6-0.9-1.4-0.9-2.4c0-0.9,0.3-1.7,0.9-2.4c0.6-0.6,1.3-0.9,2.3-0.9c0.9,0,1.7,0.3,2.3,0.9
    c0.6,0.6,0.9,1.4,0.9,2.4c0,0.9-0.3,1.7-0.9,2.4c-0.6,0.6-1.3,0.9-2.3,0.9C110.1,52.1,109.4,51.8,108.8,51.2z M108.7,48.8
    c0,0.7,0.2,1.4,0.6,1.9c0.4,0.5,1,0.7,1.7,0.7c0.7,0,1.3-0.2,1.7-0.7c0.4-0.5,0.6-1.1,0.6-1.9c0-0.8-0.2-1.4-0.6-1.9
    c-0.4-0.5-1-0.7-1.7-0.7c-0.7,0-1.3,0.2-1.7,0.7C108.9,47.5,108.7,48.1,108.7,48.8z"/>
  <path d="M116.8,52v-6.3h4.2v0.7h-3.4v2h3.3v0.7h-3.3V52H116.8z"/>
  <path d="M127.3,52v-6.3h4.2v0.7h-3.4v2h3.3v0.7h-3.3V52H127.3z"/>
  <path d="M133.9,52v-6.3h0.8V52H133.9z"/>
  <path d="M137.6,52v-6.3h0.8l3.7,5v-5h0.8V52h-0.8l-3.7-5.1V52H137.6z"/>
  <path d="M145.7,52v-6.3h4.2v0.7h-3.4v2h3.3v0.7h-3.3v2.2h3.4V52H145.7z"/>
  <path d="M156,51.1l0.5-0.6c0.5,0.6,1.2,0.9,2,0.9c0.5,0,0.9-0.1,1.1-0.3s0.4-0.5,0.4-0.8c0-0.3-0.1-0.5-0.4-0.7
    c-0.3-0.2-0.6-0.3-0.9-0.4c-0.4-0.1-0.7-0.2-1.1-0.3c-0.4-0.1-0.7-0.3-0.9-0.5c-0.3-0.3-0.4-0.6-0.4-1c0-0.5,0.2-0.9,0.6-1.3
    c0.4-0.3,0.9-0.5,1.6-0.5c0.9,0,1.7,0.3,2.2,0.9l-0.5,0.6c-0.4-0.5-1.1-0.8-1.8-0.8c-0.4,0-0.7,0.1-0.9,0.3
    c-0.2,0.2-0.4,0.4-0.4,0.7c0,0.2,0.1,0.4,0.3,0.6c0.2,0.1,0.4,0.3,0.7,0.3c0.3,0.1,0.6,0.2,0.9,0.3c0.3,0.1,0.6,0.2,0.9,0.3
    s0.5,0.3,0.7,0.6c0.2,0.3,0.3,0.6,0.3,0.9c0,0.5-0.2,1-0.6,1.3c-0.4,0.4-1,0.5-1.8,0.5C157.4,52.1,156.6,51.8,156,51.1z"/>
  <path d="M163.9,51.2c-0.6-0.6-0.9-1.4-0.9-2.4c0-0.9,0.3-1.7,0.9-2.4s1.3-0.9,2.3-0.9c0.9,0,1.7,0.3,2.3,0.9
    c0.6,0.6,0.9,1.4,0.9,2.4c0,0.9-0.3,1.7-0.9,2.4c-0.6,0.6-1.3,0.9-2.3,0.9C165.3,52.1,164.5,51.8,163.9,51.2z M163.9,48.8
    c0,0.7,0.2,1.4,0.6,1.9c0.4,0.5,1,0.7,1.7,0.7c0.7,0,1.3-0.2,1.7-0.7s0.6-1.1,0.6-1.9c0-0.8-0.2-1.4-0.6-1.9
    c-0.4-0.5-1-0.7-1.7-0.7c-0.7,0-1.3,0.2-1.7,0.7C164.1,47.5,163.9,48.1,163.9,48.8z"/>
  <path d="M172,52v-6.3h4.2v0.7h-3.4v2h3.3v0.7h-3.3V52H172z"/>
  <path d="M178.2,46.4v-0.7h4.8v0.7h-2V52h-0.8v-5.6H178.2z"/>
  <path d="M184.8,45.7h0.8l1.4,5.4l1.5-5.4h0.7l1.5,5.3l1.3-5.3h0.8l-1.7,6.3h-0.8l-1.4-5.1l-1.4,5.1h-0.9L184.8,45.7z"/>
  <path d="M194.1,52l2.6-6.3h1l2.6,6.3h-0.9l-0.6-1.4h-3.2L195,52H194.1z M195.8,49.9h2.7l-1.4-3.4L195.8,49.9z"/>
  <path d="M202.4,52v-6.3h2.6c0.6,0,1.1,0.2,1.4,0.5c0.4,0.3,0.6,0.8,0.6,1.4c0,0.5-0.2,1-0.5,1.3c-0.3,0.3-0.7,0.5-1.2,0.5L207,52
    H206l-1.6-2.5h-1.3V52H202.4z M203.2,48.8h1.7c0.4,0,0.7-0.1,0.9-0.3c0.2-0.2,0.4-0.5,0.4-0.9c0-0.4-0.1-0.7-0.4-0.9
    c-0.2-0.2-0.5-0.3-0.9-0.3h-1.7V48.8z"/>
  <path d="M209.6,52v-6.3h4.2v0.7h-3.4v2h3.3v0.7h-3.3v2.2h3.4V52H209.6z"/>
</g>
</svg>
