<!-- Generator: Adobe Illustrator 18.1.1, SVG Export Plug-In  -->
<svg version="1.1"
   xmlns="http://www.w3.org/2000/svg" xmlns:xlink="http://www.w3.org/1999/xlink" xmlns:a="http://ns.adobe.com/AdobeSVGViewerExtensions/3.0/"
   x="0px" y="0px" width="370.4px" height="75.2px" viewBox="0 0 370.4 75.2" enable-background="new 0 0 370.4 75.2"
   xml:space="preserve">
<defs>
</defs>
<g>
  <defs>
    <path id="SVGID_1_" d="M326.6,43.5h33.7c-0.1-4.5-1.5-8.5-4.5-12.2c-2.9-3.7-7-5.5-12.4-5.5c-5.1,0-9.1,1.8-12.1,5.4
      C328.4,34.9,326.8,39,326.6,43.5z M321.3,45.8c0-6.8,2.1-12.5,6.3-17.2c4.2-4.7,9.5-7.1,15.9-7.1c6.8,0,12.1,2.3,16,7
      c3.9,4.7,5.9,10.5,5.9,17.6v1.3h-38.8c0.2,5.3,2,9.6,5.3,13.1c3.3,3.5,7.6,5.3,12.9,5.3c6.2,0,11.2-2.1,15.2-6.4l2.6,3.3
      c-4.8,5-10.9,7.5-18.1,7.5c-6.8,0-12.3-2.3-16.6-6.8S321.3,53,321.3,45.8z M94.4,45.8c0,3.4,1,6.1,2.9,8.2
      c1.9,2.1,4.4,3.1,7.3,3.1c1.6,0,3.2-0.4,4.9-1.2c1.7-0.8,3-1.8,4-3V38.7c-1-1.2-2.3-2.2-4-3c-1.7-0.8-3.3-1.1-4.9-1.1
      c-3,0-5.4,1-7.3,3.1C95.3,39.7,94.4,42.4,94.4,45.8z M280.7,62.8l3-3.7c1.6,2,3.7,3.6,6.3,4.9c2.6,1.3,5.5,1.9,8.7,1.9
      c3.8,0,6.8-0.9,9-2.6c2.2-1.8,3.4-4,3.4-6.8c0-2.3-1-4.1-3-5.5c-2-1.3-4.4-2.4-7.3-3c-2.8-0.7-5.7-1.4-8.6-2.2
      c-2.9-0.8-5.3-2.1-7.4-4c-2-1.9-3-4.4-3-7.4c0-3.7,1.5-6.7,4.5-9.2c3-2.5,7-3.7,12.1-3.7c7,0,12.5,2.3,16.6,6.8l-2.8,3.5
      c-3-4.1-7.6-6.1-13.8-6.1c-3.5,0-6.3,0.8-8.4,2.4c-2.1,1.6-3.1,3.6-3.1,6.1c0,2.1,1,3.8,3,5c2,1.2,4.4,2.1,7.3,2.8
      c2.8,0.7,5.7,1.4,8.5,2.2c2.8,0.8,5.3,2.3,7.3,4.3c2,2,3,4.7,3,8c0,4-1.5,7.2-4.5,9.8c-3,2.6-7.3,3.8-12.8,3.8
      C291,70.2,285.1,67.7,280.7,62.8z M149.1,40.6h19.1c-0.2-1.9-1.1-3.6-2.7-5c-1.5-1.5-3.8-2.2-6.9-2.2c-2.9,0-5.2,0.7-6.7,2.1
      C150.3,37,149.4,38.7,149.1,40.6z M242.5,54.8c0,3.3,1.2,6.1,3.5,8.2s5.4,3.2,9.2,3.2c6.1,0,10.8-2.1,14-6.4V49.7
      c-3.2-4.3-7.9-6.4-14-6.4c-3.8,0-6.8,1.1-9.2,3.3C243.7,48.7,242.5,51.5,242.5,54.8z M12.1,28.3c4.8-4.5,10.8-6.8,18.1-6.8
      c4.6,0,8.5,0.8,11.7,2.5c3.2,1.7,5.6,3.7,7.2,6.1L39.7,39c-2-2.9-4.9-4.4-8.8-4.4c-3.1,0-5.7,1-7.8,3c-2,2-3.1,4.7-3.1,8.2
      s1,6.2,3.1,8.2c2,2,4.6,3.1,7.8,3.1c3.7,0,6.6-1.5,8.8-4.5l9.6,9c-1.6,2.4-4,4.4-7.2,6.1c-3.2,1.7-7.1,2.5-11.7,2.5
      c-7.3,0-13.3-2.3-18.1-6.8C7.4,58.8,5,53,5,45.8S7.4,32.8,12.1,28.3z M237.3,54.7c0-4.8,1.6-8.6,4.8-11.3c3.2-2.7,7-4.1,11.4-4.1
      c6.5,0,11.8,2.2,15.8,6.6v-9.4c0-3.3-1.2-5.9-3.5-7.8c-2.3-1.9-5.3-2.9-8.9-2.9c-5.8,0-10.6,2.3-14.6,6.8l-2.8-3.5
      c4.8-5.2,10.8-7.8,17.9-7.8c5,0,9.1,1.2,12.2,3.8c3.1,2.5,4.7,6.2,4.7,11.2V69h-5v-5.5c-4,4.4-9.3,6.6-15.8,6.7
      c-4.3,0-8.1-1.4-11.3-4.2C238.9,63.2,237.3,59.5,237.3,54.7z M139.9,28.5c4.6-4.7,10.5-7,17.6-7c7,0,12.7,2.4,17.1,7.1
      c4.4,4.7,6.6,11,6.6,18.8v3.4h-33c0.6,2.3,1.8,4.1,3.8,5.5c2,1.4,4.6,2.1,7.8,2.1c1.8,0,3.8-0.4,6-1.1c2.2-0.7,4-1.7,5.3-2.8
      l6.5,9.7c-2.2,2-5.1,3.5-8.6,4.5c-3.5,1.1-7.1,1.6-10.8,1.6c-7.3,0-13.3-2.2-18.1-6.7c-4.8-4.5-7.2-10.4-7.2-17.7
      C133,38.9,135.3,33.2,139.9,28.5z M194.9,57.4c1.4,2.3,3.5,4.3,6.4,5.9c2.8,1.6,5.8,2.4,8.9,2.4c5.1,0,9-1.9,11.9-5.6
      c2.9-3.7,4.3-8.4,4.3-14.2c0-5.8-1.4-10.6-4.3-14.3c-2.9-3.7-6.8-5.6-11.9-5.6c-3.1,0-6,0.8-8.9,2.5c-2.9,1.7-5,3.7-6.4,6V57.4z
       M85,28.1c3.8-4.4,8.7-6.6,14.7-6.6c5.6,0,10.2,2.2,13.7,6.7V5h14.7v64h-14.7v-5.4c-3.8,4.3-8.4,6.5-13.7,6.6
      c-5.9,0-10.8-2.2-14.7-6.5c-2-2.3-3.5-5-4.5-8.2l9.9-9.9v-0.8l-9.5-9.6C81.9,32.5,83.2,30.1,85,28.1z M190,69V5h5v25.2
      c4.1-5.8,9.5-8.6,16.1-8.7c6.2,0,11.2,2.2,15,6.7c3.8,4.5,5.7,10.4,5.7,17.7s-1.9,13.2-5.7,17.7c-3.8,4.4-8.8,6.6-15,6.6
      c-3.3,0-6.4-0.8-9.2-2.4c-2.8-1.6-5.1-3.7-6.9-6.2V69H190z"/>
  </defs>
  <clipPath id="SVGID_2_">
    <use xlink:href="#SVGID_1_"  overflow="visible"/>
  </clipPath>
  <rect x="0" y="0" clip-path="url(#SVGID_2_)" fill-rule="evenodd" clip-rule="evenodd" width="370.4" height="75.2"/>
</g>
<g>
  <defs>
    <path id="SVGID_3_" d="M63,61.5l-4.1,4.3L39.1,45.6v-0.8l19.9-20.3l4.1,4.3l4.4-4.3l20,20.3v0.8l-20,20.2L63,61.5z M63.3,35.7
      l-9.6,9.5l9.7,9.4l9.2-9.4L63.3,35.7z"/>
  </defs>
  <clipPath id="SVGID_4_">
    <use xlink:href="#SVGID_3_"  overflow="visible"/>
  </clipPath>

    <rect x="34.1" y="19.5" clip-path="url(#SVGID_4_)" fill-rule="evenodd" clip-rule="evenodd" fill="#E22C2C" width="58.4" height="51.3"/>
</g>
</svg>
