<!-- Generator: Adobe Illustrator 18.1.1, SVG Export Plug-In  -->
<svg version="1.1"
   xmlns="http://www.w3.org/2000/svg" xmlns:xlink="http://www.w3.org/1999/xlink" xmlns:a="http://ns.adobe.com/AdobeSVGViewerExtensions/3.0/"
   x="0px" y="0px" width="586.8px" height="132.6px" viewBox="0 0 586.8 132.6" enable-background="new 0 0 586.8 132.6"
   xml:space="preserve">
<defs>
</defs>
<path d="M0,4.7l22.6-1.1l29.3,70.4l22.4-73L96.8,0L65.4,95.1l-24.9,1.2L0,4.7z"/>
<path d="M91.3,93.1l22.8-91.4l18.1,4.5l-22.8,91.4L91.3,93.1z"/>
<path d="M123.6,97.9l40.3-91.7l24.9,1.1l31.7,95l-22.6-1l-5.2-16.1l-40-1.8l-6.6,15.5L123.6,97.9z M158.9,66.2l29.1,1.3l-12.7-40.9
  L158.9,66.2z"/>
<path d="M228.7,104.3l-9.5-93l36.7-3.8c14.6-1.5,27,1.6,37,9.2c10,7.6,15.8,18.3,17.2,32.2c1.4,14-2,25.8-10.2,35.2
  c-8.2,9.4-19.7,14.9-34.3,16.4L228.7,104.3z M246.7,84.9l16.9-1.7c8.9-0.9,15.7-4.4,20.4-10.5c4.7-6.1,6.6-13.3,5.7-21.6
  c-0.9-8.4-4.1-15.1-9.7-20.1c-5.6-4.9-13-6.9-22.2-6l-17,1.7L246.7,84.9z"/>
<path d="M321,57.4l7-55.6l19.8,2.5l-6.9,55.2c-0.8,6.7,0.4,12.2,3.7,16.7c3.3,4.4,8.4,7.1,15.4,8c7,0.9,12.6-0.4,16.8-3.9
  c4.3-3.5,6.8-8.6,7.6-15.2l6.9-55.2l20.3,2.5l-7,55.6c-1.5,11.9-6.2,20.9-14.2,27c-8,6.1-18.9,8.3-32.6,6.6S334.2,95,328,87.1
  C321.9,79.2,319.5,69.3,321,57.4z"/>
<path d="M416.1,59c-1.8-14.2,1.5-26.3,9.7-36.4c8.3-10.1,19.5-16,33.7-17.8c17.3-2.2,31.2,3.7,41.5,17.6L485.1,33
  c-2.5-3.7-5.9-6.5-10.2-8.6c-4.3-2.1-8.7-2.8-13.2-2.2c-8.4,1.1-15,4.8-19.8,11.3c-4.8,6.5-6.6,14.1-5.5,23
  c1.1,8.9,4.8,15.9,11,20.9c6.2,5.1,13.6,7.1,22,6c4.5-0.6,8.6-2.4,12.2-5.5c3.6-3.1,6.2-6.7,7.7-10.9l18,6.1
  c-6.7,16.2-18.6,25.4-35.8,27.6c-14.2,1.8-26.5-1.2-37.1-9C424,84,417.9,73.1,416.1,59z"/>
<path d="M510.4,19.5l2.4-17.4l74,10l-2.4,17.4l-27.1-3.7l-10.2,75.3l-19.7-2.7l10.2-75.3L510.4,19.5z"/>
<path d="M565.6,33l0.2-1.6l6.7,0.8l-0.2,1.6l-2.4-0.3l-0.8,6.8l-1.8-0.2l0.8-6.8L565.6,33z"/>
<path d="M572.6,40.7l1-8.3l2.5,0.3l1.4,5.5l2.7-5l2.5,0.3l-1,8.3l-1.8-0.2l0.8-6l-3.1,5.7l-0.8-0.1l-1.6-6.3l-0.8,6L572.6,40.7z"/>
<path d="M215.1,132.4l5.5-14.3h3.8l5.5,14.3h-3.4l-0.9-2.4h-6.1l-0.9,2.4H215.1z M220.2,127.3h4.5l-2.2-6.1L220.2,127.3z"/>
<path d="M231.2,132.4v-14.3h6.7c1.5,0,2.7,0.4,3.5,1.3c0.9,0.9,1.3,2,1.3,3.3c0,1.3-0.4,2.4-1.3,3.3c-0.9,0.9-2,1.3-3.5,1.3h-3.6
  v5.1H231.2z M234.2,124.6h3.2c0.6,0,1.1-0.2,1.5-0.5c0.4-0.4,0.6-0.8,0.6-1.4c0-0.6-0.2-1.1-0.6-1.4c-0.4-0.3-0.9-0.5-1.5-0.5h-3.2
  V124.6z"/>
<path d="M244.6,132.4v-14.3h6.7c1.5,0,2.7,0.4,3.5,1.3c0.9,0.9,1.3,2,1.3,3.3c0,1.3-0.4,2.4-1.3,3.3c-0.9,0.9-2,1.3-3.5,1.3h-3.6
  v5.1H244.6z M247.6,124.6h3.2c0.6,0,1.1-0.2,1.5-0.5c0.4-0.4,0.6-0.8,0.6-1.4c0-0.6-0.2-1.1-0.6-1.4c-0.4-0.3-0.9-0.5-1.5-0.5h-3.2
  V124.6z"/>
<path d="M257.8,132.4v-14.3h3v11.6h6.1v2.7H257.8z"/>
<path d="M269,132.4v-14.3h3v14.3H269z"/>
<path d="M274.2,125.2c0-2.2,0.7-4,2.2-5.3c1.4-1.4,3.3-2.1,5.4-2.1c2.7,0,4.7,1.2,5.9,3.5l-2.6,1.3c-0.3-0.6-0.8-1.1-1.4-1.5
  c-0.6-0.4-1.3-0.6-2-0.6c-1.3,0-2.4,0.4-3.2,1.3c-0.9,0.9-1.3,2-1.3,3.4c0,1.4,0.4,2.5,1.3,3.4c0.8,0.9,1.9,1.3,3.2,1.3
  c0.7,0,1.3-0.2,2-0.6c0.6-0.4,1.1-0.9,1.4-1.5l2.6,1.3c-1.3,2.3-3.3,3.5-5.9,3.5c-2.2,0-4-0.7-5.4-2.1
  C274.9,129.2,274.2,127.4,274.2,125.2z"/>
<path d="M287.9,132.4l5.5-14.3h3.8l5.5,14.3h-3.4l-0.9-2.4h-6.1l-0.9,2.4H287.9z M293.1,127.3h4.5l-2.2-6.1L293.1,127.3z"/>
<path d="M301.8,120.8v-2.7h11.4v2.7H309v11.6h-3v-11.6H301.8z"/>
<path d="M315.1,132.4v-14.3h3v14.3H315.1z"/>
<path d="M322.4,130.5c-1.4-1.4-2.1-3.2-2.1-5.3c0-2.2,0.7-3.9,2.1-5.3c1.4-1.4,3.2-2.1,5.4-2.1c2.2,0,3.9,0.7,5.3,2.1
  c1.4,1.4,2.1,3.2,2.1,5.3c0,2.2-0.7,3.9-2.1,5.3c-1.4,1.4-3.2,2.1-5.3,2.1C325.6,132.6,323.8,131.9,322.4,130.5z M324.6,121.8
  c-0.8,0.9-1.2,2-1.2,3.4c0,1.4,0.4,2.5,1.2,3.4c0.8,0.9,1.8,1.3,3.1,1.3c1.3,0,2.3-0.4,3.1-1.3c0.8-0.9,1.2-2,1.2-3.4
  c0-1.4-0.4-2.5-1.2-3.4c-0.8-0.9-1.8-1.3-3.1-1.3C326.4,120.5,325.4,121,324.6,121.8z"/>
<path d="M337.3,132.4v-14.3h3.1l6.6,9v-9h3v14.3h-2.9l-6.8-9.3v9.3H337.3z"/>
<path d="M358.4,132.4v-14.3h3v5.6h6.7v-5.6h3v14.3h-3v-6h-6.7v6H358.4z"/>
<path d="M375.5,130.5c-1.4-1.4-2.1-3.2-2.1-5.3c0-2.2,0.7-3.9,2.1-5.3c1.4-1.4,3.2-2.1,5.4-2.1c2.2,0,3.9,0.7,5.3,2.1
  c1.4,1.4,2.1,3.2,2.1,5.3c0,2.2-0.7,3.9-2.1,5.3c-1.4,1.4-3.2,2.1-5.3,2.1C378.7,132.6,376.9,131.9,375.5,130.5z M377.7,121.8
  c-0.8,0.9-1.2,2-1.2,3.4c0,1.4,0.4,2.5,1.2,3.4c0.8,0.9,1.8,1.3,3.1,1.3c1.3,0,2.3-0.4,3.1-1.3c0.8-0.9,1.2-2,1.2-3.4
  c0-1.4-0.4-2.5-1.2-3.4c-0.8-0.9-1.8-1.3-3.1-1.3C379.5,120.5,378.5,121,377.7,121.8z"/>
<path d="M389.4,130.4l1.7-2.4c1.2,1.3,2.8,2,4.5,2c0.8,0,1.4-0.2,1.8-0.5c0.4-0.3,0.6-0.7,0.6-1.1c0-0.4-0.2-0.7-0.6-1
  c-0.4-0.3-0.9-0.5-1.5-0.6c-0.6-0.1-1.3-0.3-2-0.5c-0.7-0.2-1.4-0.4-2-0.7c-0.6-0.3-1.1-0.7-1.5-1.3c-0.4-0.6-0.6-1.3-0.6-2.1
  c0-1.2,0.5-2.2,1.5-3.1c1-0.8,2.3-1.2,3.9-1.2c2.3,0,4.1,0.7,5.6,2l-1.7,2.3c-1.1-1-2.5-1.6-4.1-1.6c0,0,0,0,0,0
  c-0.6,0-1.1,0.1-1.5,0.4c-0.4,0.3-0.5,0.6-0.5,1c0,0.3,0.2,0.6,0.6,0.8c0.4,0.2,0.9,0.4,1.5,0.6c0.6,0.2,1.3,0.3,2,0.5
  c0.7,0.2,1.4,0.4,2,0.7c0.6,0.3,1.1,0.7,1.5,1.3c0.4,0.6,0.6,1.3,0.6,2.2c0,1.4-0.5,2.5-1.5,3.3c-1,0.8-2.4,1.3-4.3,1.3
  C393,132.6,390.9,131.9,389.4,130.4z"/>
<path d="M402.1,120.8v-2.7h11.4v2.7h-4.2v11.6h-3v-11.6H402.1z"/>
<path d="M415.4,132.4v-14.3h3v14.3H415.4z"/>
<path d="M421.3,132.4v-14.3h3.1l6.6,9v-9h3v14.3h-2.9l-6.8-9.3v9.3H421.3z"/>
<path d="M436.2,125.2c0-2.2,0.7-4,2.2-5.4c1.5-1.4,3.3-2,5.4-2c2.6,0,4.5,1.1,5.9,3.2l-2.5,1.4c-0.4-0.5-0.8-1-1.4-1.3
  s-1.2-0.5-2-0.5c-1.3,0-2.4,0.4-3.2,1.3c-0.9,0.9-1.3,2-1.3,3.4c0,1.4,0.4,2.5,1.3,3.4c0.8,0.9,1.9,1.3,3.2,1.3
  c0.6,0,1.2-0.1,1.7-0.3c0.6-0.2,1-0.5,1.3-0.8v-1.7H443v-2.7h6.8v5.5c-1.6,1.8-3.6,2.7-6.1,2.7c-2.2,0-4-0.7-5.4-2
  C436.9,129.2,436.2,127.4,436.2,125.2z"/>
<path d="M457.8,132.4v-14.3h6.7c1.5,0,2.7,0.4,3.5,1.3s1.3,2,1.3,3.3c0,1.3-0.4,2.4-1.3,3.3c-0.9,0.9-2,1.3-3.5,1.3h-3.6v5.1H457.8z
   M460.8,124.6h3.2c0.6,0,1.1-0.2,1.5-0.5c0.4-0.4,0.6-0.8,0.6-1.4c0-0.6-0.2-1.1-0.6-1.4c-0.4-0.3-0.9-0.5-1.5-0.5h-3.2V124.6z"/>
<path d="M471,132.4v-14.3h3v11.6h6.1v2.7H471z"/>
<path d="M480.7,132.4l5.5-14.3h3.8l5.5,14.3H492l-0.9-2.4H485l-0.9,2.4H480.7z M485.8,127.3h4.5l-2.2-6.1L485.8,127.3z"/>
<path d="M494.5,120.8v-2.7h11.4v2.7h-4.2v11.6h-3v-11.6H494.5z"/>
<path d="M507.9,132.4v-14.3H518v2.7h-7.1v3h6.9v2.7h-6.9v5.9H507.9z"/>
<path d="M521.5,130.5c-1.4-1.4-2.1-3.2-2.1-5.3c0-2.2,0.7-3.9,2.1-5.3c1.4-1.4,3.2-2.1,5.4-2.1c2.2,0,3.9,0.7,5.3,2.1
  c1.4,1.4,2.1,3.2,2.1,5.3c0,2.2-0.7,3.9-2.1,5.3c-1.4,1.4-3.2,2.1-5.3,2.1C524.7,132.6,522.9,131.9,521.5,130.5z M523.7,121.8
  c-0.8,0.9-1.2,2-1.2,3.4c0,1.4,0.4,2.5,1.2,3.4c0.8,0.9,1.8,1.3,3.1,1.3c1.3,0,2.3-0.4,3.1-1.3c0.8-0.9,1.2-2,1.2-3.4
  c0-1.4-0.4-2.5-1.2-3.4c-0.8-0.9-1.8-1.3-3.1-1.3C525.5,120.5,524.5,121,523.7,121.8z"/>
<path d="M536.4,132.4v-14.3h6.7c1.5,0,2.6,0.4,3.5,1.3c0.9,0.9,1.3,2,1.3,3.3c0,1.2-0.3,2.1-0.9,2.8c-0.6,0.7-1.4,1.2-2.2,1.4
  l3.2,5.4h-3.5l-2.8-5.1h-2.2v5.1H536.4z M539.5,124.6h3.2c0.6,0,1.1-0.2,1.5-0.5c0.4-0.4,0.6-0.8,0.6-1.4c0-0.6-0.2-1-0.6-1.4
  c-0.4-0.3-0.9-0.5-1.5-0.5h-3.2V124.6z"/>
<path d="M550.2,132.4v-14.3h4.3l3.5,8.9l3.5-8.9h4.3v14.3h-3v-10.3l-4,10.3h-1.3l-4-10.3v10.3H550.2z"/>
</svg>
