<!-- Generator: Adobe Illustrator 18.1.1, SVG Export Plug-In  -->
<svg version="1.1"
   xmlns="http://www.w3.org/2000/svg" xmlns:xlink="http://www.w3.org/1999/xlink" xmlns:a="http://ns.adobe.com/AdobeSVGViewerExtensions/3.0/"
   x="0px" y="0px" width="54px" height="54px" viewBox="0 0 54 54" enable-background="new 0 0 54 54" xml:space="preserve">
<defs>
</defs>
<g>
  <g>
    <path fill="#777777" d="M27,1c-1,0-2.1,0.1-3.1,0.2c-0.4,2.8-2.2,5.2-5,6.4c-2.8,1.1-5.8,0.7-8-1c-1.6,1.3-3.1,2.7-4.3,4.3
      c1.7,2.2,2.1,5.3,1,8c-1.1,2.8-3.6,4.6-6.4,5C1.1,24.9,1,26,1,27c0,1,0.1,2.1,0.2,3.1c2.8,0.4,5.2,2.2,6.4,5c1.1,2.8,0.7,5.8-1,8
      c1.3,1.6,2.7,3.1,4.3,4.3c2.2-1.7,5.3-2.1,8-1c2.8,1.1,4.6,3.6,5,6.4c1,0.1,2,0.2,3.1,0.2c1,0,2.1-0.1,3.1-0.2
      c0.4-2.8,2.2-5.2,5-6.4c2.8-1.1,5.8-0.7,8,1c1.6-1.3,3.1-2.7,4.3-4.3c-1.7-2.2-2.1-5.3-1-8c1.1-2.8,3.6-4.6,6.4-5
      c0.1-1,0.2-2,0.2-3.1c0-1-0.1-2.1-0.2-3.1c-2.8-0.4-5.2-2.2-6.4-5c-1.1-2.8-0.7-5.8,1-8c-1.3-1.6-2.7-3.1-4.3-4.3
      c-2.2,1.7-5.3,2.1-8,1s-4.6-3.6-5-6.4C29.1,1.1,28,1,27,1z M27,35.7c-4.8,0-8.7-3.9-8.7-8.7s3.9-8.7,8.7-8.7
      c4.8,0,8.7,3.9,8.7,8.7S31.8,35.7,27,35.7z"/>
    <path d="M27,54c-1,0-2.1-0.1-3.2-0.2l-0.8-0.1L23,53c-0.4-2.5-2-4.6-4.4-5.6c-2.3-1-5.1-0.6-7.1,0.9l-0.6,0.5l-0.6-0.5
      c-1.7-1.3-3.2-2.8-4.5-4.5l-0.5-0.6l0.5-0.6c1.5-2.1,1.9-4.7,0.9-7.1c-1-2.4-3.1-4-5.6-4.4l-0.8-0.1l-0.1-0.8C0.1,29.1,0,28,0,27
      c0-1,0.1-2.1,0.2-3.2l0.1-0.8L1,23c2.5-0.4,4.6-2,5.6-4.4c1-2.4,0.6-5-0.9-7.1l-0.5-0.6l0.5-0.6c1.3-1.7,2.8-3.2,4.5-4.5l0.6-0.5
      l0.6,0.5c2,1.5,4.8,1.8,7.1,0.9c2.4-1,4-3.1,4.4-5.6l0.1-0.8l0.8-0.1c2.2-0.3,4.1-0.3,6.4,0l0.8,0.1L31,1c0.4,2.5,2,4.6,4.4,5.6
      c2.3,1,5.1,0.6,7.1-0.9l0.6-0.5l0.6,0.5c1.7,1.3,3.2,2.8,4.5,4.5l0.5,0.6l-0.5,0.6c-1.5,2.1-1.9,4.7-0.9,7.1c1,2.4,3.1,4,5.6,4.4
      l0.8,0.1l0.1,0.8C53.9,24.9,54,26,54,27c0,1-0.1,2.1-0.2,3.2l-0.1,0.8L53,31.1c-2.5,0.4-4.6,2-5.6,4.4c-1,2.4-0.6,5,0.9,7.1
      l0.5,0.6l-0.5,0.6c-1.3,1.7-2.8,3.2-4.5,4.5l-0.6,0.5l-0.6-0.5c-2-1.5-4.8-1.8-7.1-0.9c-2.4,1-4,3.1-4.4,5.6l-0.1,0.8l-0.8,0.1
      C29.1,53.9,28,54,27,54z M24.8,51.9c1.5,0.1,2.9,0.1,4.4,0c0.7-2.9,2.7-5.3,5.4-6.4c2.7-1.1,5.9-0.9,8.4,0.7c1.1-1,2.2-2,3.1-3.1
      c-1.6-2.5-1.8-5.6-0.7-8.4c1.1-2.8,3.5-4.8,6.4-5.4C52,28.5,52,27.7,52,27c0-0.7,0-1.5-0.1-2.2c-2.9-0.7-5.3-2.7-6.4-5.4
      c-1.1-2.8-0.9-5.8,0.7-8.4c-1-1.1-2-2.2-3.1-3.1c-2.5,1.5-5.7,1.8-8.4,0.7c-2.8-1.1-4.8-3.5-5.4-6.4c-1.5-0.1-2.9-0.1-4.4,0
      c-0.7,2.9-2.7,5.3-5.4,6.4c-2.7,1.1-5.9,0.9-8.4-0.7c-1.1,1-2.2,2-3.1,3.1c1.6,2.5,1.8,5.6,0.7,8.4c-1.1,2.8-3.5,4.8-6.4,5.4
      C2,25.5,2,26.3,2,27c0,0.7,0,1.5,0.1,2.2c2.9,0.7,5.3,2.7,6.4,5.4c1.1,2.8,0.9,5.8-0.7,8.4c1,1.1,2,2.2,3.1,3.1
      c2.5-1.5,5.7-1.8,8.4-0.7C22.1,46.6,24.1,49,24.8,51.9z M27,36.7c-5.3,0-9.7-4.3-9.7-9.7c0-5.3,4.3-9.7,9.7-9.7
      c5.3,0,9.7,4.3,9.7,9.7C36.7,32.3,32.3,36.7,27,36.7z M27,19.3c-4.2,0-7.7,3.4-7.7,7.7c0,4.2,3.4,7.7,7.7,7.7
      c4.2,0,7.7-3.4,7.7-7.7C34.7,22.8,31.2,19.3,27,19.3z"/>
  </g>
  <g>
    <path fill="#F9B514" d="M27,12.3c-8.1,0-14.7,6.6-14.7,14.7c0,8.1,6.6,14.7,14.7,14.7c8.1,0,14.7-6.6,14.7-14.7
      C41.7,18.9,35.1,12.3,27,12.3z M27,35.7c-4.8,0-8.7-3.9-8.7-8.7s3.9-8.7,8.7-8.7c4.8,0,8.7,3.9,8.7,8.7S31.8,35.7,27,35.7z"/>
    <path d="M27,42.7c-8.7,0-15.7-7.1-15.7-15.7c0-8.7,7.1-15.7,15.7-15.7c8.7,0,15.7,7.1,15.7,15.7C42.7,35.7,35.7,42.7,27,42.7z
       M27,13.3c-7.6,0-13.7,6.2-13.7,13.7c0,7.6,6.2,13.7,13.7,13.7c7.6,0,13.7-6.2,13.7-13.7C40.7,19.4,34.6,13.3,27,13.3z M27,36.7
      c-5.3,0-9.7-4.3-9.7-9.7c0-5.3,4.3-9.7,9.7-9.7c5.3,0,9.7,4.3,9.7,9.7C36.7,32.3,32.3,36.7,27,36.7z M27,19.3
      c-4.2,0-7.7,3.4-7.7,7.7c0,4.2,3.4,7.7,7.7,7.7c4.2,0,7.7-3.4,7.7-7.7C34.7,22.8,31.2,19.3,27,19.3z"/>
  </g>
</g>
</svg>
