<!-- Generator: Adobe Illustrator 18.1.1, SVG Export Plug-In  -->
<svg version="1.1"
   xmlns="http://www.w3.org/2000/svg" xmlns:xlink="http://www.w3.org/1999/xlink" xmlns:a="http://ns.adobe.com/AdobeSVGViewerExtensions/3.0/"
   x="0px" y="0px" width="341px" height="186.5px" viewBox="0 0 341 186.5" enable-background="new 0 0 341 186.5"
   xml:space="preserve">
<defs>
</defs>
<g>
  <path fill="#FFFFFF" d="M93,75.1c0,0.9-0.5,1.9-1.3,2.9c-0.8,1-1.8,2-3,3c-1.2,1-2.5,1.8-3.8,2.7c-1.3,0.8-2.6,1.5-3.7,2
    c-1.7,0.8-3.6,1.5-5.5,2.1c-1.9,0.6-3.9,1.3-6.1,1.9c-0.6,0.2-1.1,0.2-1.4-0.1c-0.4-0.2-0.7-0.6-0.8-1c-0.1-0.4-0.1-0.9,0.1-1.3
    c0.2-0.5,0.6-0.8,1.2-1c2.1-0.7,4.1-1.3,6-1.9c1.9-0.6,3.6-1.3,5.1-2c0.9-0.4,1.8-1,2.9-1.6c1.1-0.7,2.1-1.4,3-2.1
    c1-0.7,1.8-1.5,2.4-2.3c0.7-0.8,1.1-1.5,1.2-2.1c0.2-0.9,0-1.9-0.5-2.9c-0.5-1-1.4-2.1-2.6-3.3c-0.6-0.6-1.4-1.4-2.4-2.2
    c-0.9-0.8-1.9-1.7-2.9-2.5c-1-0.9-2.1-1.7-3.2-2.6c-1.1-0.9-2.1-1.7-3-2.5c-0.6,2.3-1.2,4.6-1.9,7C72,67.7,71.4,70,70.8,72
    c-0.6,2.1-1.1,3.9-1.5,5.4c-0.4,1.5-0.7,2.6-0.8,3.1c-0.1,0.4,0,0.8,0.1,1.3c0.1,0.5,0.2,0.9,0.3,1.2c0.2,0.5,0.1,1-0.1,1.2
    s-0.6,0.5-0.9,0.6c-0.5,0.1-0.9,0-1.4-0.2c-0.5-0.2-0.8-0.6-1-1.2c-0.1-0.4-0.3-0.9-0.4-1.5c-0.2-0.6-0.2-1.3,0-2.1
    c0.1-0.5,0.2-1.2,0.5-2.1c0.2-0.9,0.5-2,0.9-3.3c0.4-1.3,0.8-2.6,1.2-4.2c0.4-1.5,0.9-3.1,1.3-4.7c0.5-1.6,0.9-3.3,1.4-4.9
    c0.5-1.7,0.9-3.3,1.3-4.8c-0.2-0.2-0.5-0.4-0.7-0.6c-0.3-0.2-0.5-0.4-0.8-0.5c-0.3-0.1-0.6-0.2-0.9-0.4c-0.3-0.2-0.5-0.5-0.6-0.9
    c-0.2-0.4-0.3-0.8-0.2-1.2c0.1-0.4,0.3-0.6,0.6-0.8c0.3-0.3,0.7-0.4,1.2-0.4c0.5,0,1,0.1,1.5,0.5c1.7,1.3,3.4,2.7,5.1,4
    c1.7,1.4,3.3,2.7,4.8,3.9c1.5,1.3,2.9,2.4,4.1,3.5c1.2,1.1,2.2,1.9,2.9,2.6C92.1,68.9,93.6,72.1,93,75.1z"/>
  <path fill="#FFFFFF" d="M114.5,82.1c0,0.2-0.2,0.5-0.3,0.7c-0.2,0.2-0.4,0.4-0.7,0.5c-0.6,0.1-1.3,0-2.1-0.1
    c0.1,0.3,0.3,0.7,0.3,1.1c0.1,0.5,0.1,1,0,1.5c-0.1,0.6-0.3,1.1-0.6,1.8c-0.3,0.6-0.8,1.2-1.5,1.7c-2.1,1.7-4.2,2.8-6.3,3.3
    c-0.9,0.2-1.9,0.4-2.9,0.3c-1,0-2-0.1-3.1-0.3c-2.8-0.5-4.6-1.7-5.3-3.7c-0.6-1.6-0.4-3.6,0.6-6c0.4-0.9,0.8-1.7,1.3-2.5
    c0.5-0.8,1.2-1.5,1.8-2.1c0.7-0.6,1.4-1.1,2.2-1.6c0.8-0.4,1.6-0.8,2.4-1c0.7-0.2,1.5-0.2,2.2-0.1c0.7,0.2,1.4,0.6,1.9,1.3
    c0.3,0,0.6,0,1,0c0.3,0,0.6,0.1,0.9,0.2c0.5,0.2,1,0.4,1.6,0.8c0.5,0.4,1,0.8,1.3,1.2l3.8,0.7c0.6,0.1,1,0.4,1.3,0.8
    C114.6,81.2,114.6,81.6,114.5,82.1z M107.3,86.6c0.7-0.6,1-1.3,0.9-2.1c-0.1-0.8-0.4-1.5-1.1-2.2c-0.5-0.1-1-0.2-1.6-0.3
    c-0.6-0.1-1.2-0.2-1.8-0.4c-0.9-0.2-1.5-0.4-2-0.8c-0.5-0.4-0.6-0.8-0.3-1.2c-0.1-0.1-0.3-0.2-0.5-0.1c-0.2,0-0.4,0.1-0.7,0.1
    c-0.7,0.3-1.5,0.9-2.4,1.7c-0.9,0.8-1.5,1.8-1.9,3c-0.6,1.4-0.7,2.5-0.3,3.3c0.4,0.8,1.1,1.4,2.2,1.6c0.9,0.2,1.7,0.3,2.5,0.3
    c0.7,0,1.4-0.1,2-0.2c0.9-0.2,1.7-0.5,2.6-1C105.8,87.8,106.6,87.3,107.3,86.6z"/>
  <path fill="#FFFFFF" d="M147.1,94.7c0,0.3-0.2,0.7-0.4,1s-0.6,0.5-1,0.6c-0.2,0-0.4,0-0.6,0.1c-0.2,0-0.4,0-0.7-0.1
    c-0.7,0.1-1.5,0.3-2.4,0.4c-0.9,0.2-1.9,0.4-2.9,0.6c-1.8,0.4-3.4,0.3-4.8-0.3c-1.4-0.6-2.4-1.8-2.8-3.6c-0.3-1.2-0.5-2.3-0.4-3.4
    c0-1.1,0.1-1.9,0.1-2.6c0-0.4-0.2-0.7-0.6-0.9c-0.3-0.1-0.6-0.1-1-0.1c-0.4,0.1-0.8,0.2-1.2,0.3c-0.3,0.2-0.7,0.4-1.1,0.6
    c-0.4,0.3-0.9,0.5-1.3,0.8c-0.5,0.3-0.9,0.6-1.4,0.9c-0.5,0.3-1,0.5-1.4,0.7c-0.4,0.2-0.9,0.5-1.4,0.8c-0.5,0.3-1,0.7-1.5,1.1
    c-0.5,0.4-1,0.8-1.4,1.2c-0.4,0.4-0.7,0.7-0.9,1c-0.5,0.6-0.9,0.8-1.4,0.8c-0.5,0-1-0.1-1.4-0.4c-0.4-0.3-0.6-0.6-0.7-0.9
    c-0.1-0.3-0.1-0.7,0-1.1c0.2-0.8,0.3-1.7,0.5-2.5c0.2-0.9,0.3-1.7,0.5-2.5c0.1-0.8,0.3-1.6,0.4-2.3c0.1-0.7,0.2-1.3,0.3-1.8
    c-0.4-0.2-0.6-0.5-0.5-1c0.1-0.3,0.3-0.6,0.5-1c0.2-0.4,0.5-0.7,0.8-0.9c0.2-0.2,0.4-0.3,0.7-0.3c0.3,0,0.6,0,0.9,0.1
    c0.4,0.1,0.7,0.3,1,0.5c0.3,0.3,0.4,0.6,0.4,1c0,0.4-0.1,1-0.2,1.6c-0.1,0.6-0.2,1.3-0.3,2c-0.1,0.6-0.2,1.3-0.4,1.9
    c-0.1,0.6-0.2,1.2-0.4,1.7c0.5-0.5,1.1-1,1.8-1.4c0.7-0.4,1.4-0.8,2-1.2c0.8-0.5,1.5-1,2.4-1.5c0.8-0.5,1.6-0.9,2.3-1.2
    c0.8-0.4,1.6-0.7,2.5-0.8c0.9-0.2,1.7-0.1,2.5,0c0.9,0.1,1.6,0.5,2.2,1.2c0.6,0.6,0.8,1.5,0.8,2.6c-0.1,1.2-0.1,2.3-0.1,3.3
    s0.1,1.8,0.3,2.4c0.2,0.8,0.6,1.3,1.3,1.5c0.7,0.2,1.4,0.2,2.1,0.1c1.1-0.2,2.2-0.5,3.5-0.7c1.3-0.3,2.4-0.4,3.4-0.5
    c0.7,0,1.3,0.2,1.6,0.6C147.1,93.6,147.2,94.1,147.1,94.7z"/>
  <path fill="#FFFFFF" d="M151.2,76.4c-0.3,0.4-0.6,0.6-1,0.6c-0.4,0-0.8-0.1-1.1-0.2c-0.3-0.2-0.5-0.4-0.6-0.8
    c-0.1-0.3,0-0.7,0.2-1.1c0.1-0.2,0.3-0.5,0.4-0.8c0.1-0.3,0.2-0.6,0.3-1c0.1-0.3,0.2-0.7,0.2-1c0-0.3,0-0.6,0-0.8
    c-0.4-0.4-0.6-0.8-0.6-1.4c0-0.3,0.1-0.7,0.3-0.9c0.2-0.3,0.4-0.5,0.7-0.6c0.3-0.2,0.7-0.2,1.1-0.1c0.4,0.1,0.7,0.4,0.9,0.8
    c0.3,0.5,0.4,1.1,0.5,1.7c0.1,0.7,0,1.3-0.1,2c-0.1,0.7-0.3,1.3-0.5,1.9C151.8,75.4,151.5,76,151.2,76.4z"/>
  <path fill="#FFFFFF" d="M165.4,89.2c-0.1,0.4-0.3,0.7-0.6,1c-0.3,0.3-0.8,0.4-1.4,0.3c-0.7-0.1-1.7-0.3-2.9-0.6
    c-1.3-0.3-2.5-0.6-3.7-0.8c-0.2,0.9-0.3,1.8-0.4,2.7c-0.1,1-0.2,1.9-0.2,2.8c-0.1,0.9-0.1,1.8-0.1,2.6c0,0.8,0,1.5,0,2.2
    c0,0.5-0.1,1-0.5,1.3c-0.3,0.3-0.7,0.5-1.1,0.5c-0.5,0-0.9-0.1-1.3-0.4c-0.4-0.3-0.7-0.8-0.7-1.5c-0.1-1.4-0.1-3.1,0.1-5
    c0.1-1.9,0.4-3.8,0.8-5.8l-3.4-0.6c-0.6-0.1-1-0.3-1.2-0.7c-0.2-0.4-0.3-0.8-0.2-1.2c0.1-0.4,0.3-0.8,0.6-1.1
    c0.3-0.3,0.8-0.4,1.4-0.4c0.4,0.1,0.9,0.2,1.5,0.3c0.6,0.1,1.2,0.2,1.9,0.3c0.2-1,0.4-2,0.7-3.3c0.3-1.2,0.7-2.5,1.1-3.8
    c0.4-1.3,0.9-2.6,1.3-3.9c0.5-1.3,1-2.5,1.5-3.7c-0.3-0.2-0.4-0.5-0.2-0.9c0.1-0.2,0.3-0.4,0.5-0.7c0.2-0.3,0.5-0.5,0.7-0.8
    c0.1-0.1,0.2-0.3,0.3-0.5c0.1-0.2,0.2-0.3,0.3-0.4c0.3-0.5,0.7-0.7,1.2-0.7c0.5,0,0.9,0.1,1.3,0.4c0.3,0.2,0.5,0.6,0.7,0.9
    c0.2,0.4,0.2,0.8,0.1,1.3c-0.1,0.3-0.2,0.6-0.3,0.8c-0.2,0.2-0.3,0.4-0.5,0.6c-0.5,1-0.9,2.1-1.4,3.4c-0.5,1.3-1,2.6-1.4,4
    c-0.5,1.4-0.9,2.7-1.2,4.1c-0.4,1.4-0.6,2.6-0.9,3.7c0.3,0.1,0.8,0.2,1.4,0.3c0.6,0.1,1.2,0.3,1.9,0.4c0.7,0.2,1.3,0.3,2,0.5
    c0.7,0.2,1.2,0.3,1.7,0.5c0.5,0.1,0.8,0.4,0.9,0.8C165.4,88.4,165.4,88.8,165.4,89.2z"/>
  <path fill="#FFFFFF" d="M204.7,80.8c-0.2,0.4-0.5,0.7-0.9,0.9c-0.4,0.2-0.7,0.2-1.1,0.2c-0.4,0-0.8-0.2-1.1-0.4
    c-0.3-0.3-0.4-0.6-0.4-1.1c0-0.2,0-0.3,0-0.4c0-0.1,0-0.3,0-0.5c0-0.4-0.2-0.7-0.4-0.9c-0.2-0.2-0.5-0.4-0.8-0.4
    c-0.5-0.1-1.2,0-1.9,0.3c-0.7,0.3-1.4,0.6-2.1,1.1c-0.4,0.3-0.9,0.7-1.4,1.2c-0.5,0.5-1,1-1.3,1.5c-0.8,1.1-1.5,2.3-2.2,3.7
    c-0.6,1.3-1.2,2.8-1.8,4.3c1.2,0.1,2.5,0.2,3.9,0.3c1.4,0.1,2.9,0.2,4.3,0.3c0.6,0,1.1,0.2,1.3,0.6c0.3,0.4,0.4,0.8,0.3,1.2
    c-0.1,0.4-0.3,0.8-0.6,1.1c-0.3,0.3-0.8,0.5-1.3,0.4c-1.5,0-3-0.1-4.6-0.2c-1.6-0.1-3.1-0.2-4.4-0.3c-0.5,1.9-1,3.9-1.4,5.9
    c-0.4,2-0.7,3.9-0.9,5.8c-0.2,1.8-0.4,3.5-0.4,4.9c-0.1,1.5,0,2.6,0.1,3.4c0.1,0.4,0.2,0.7,0.4,0.9c0.2,0.3,0.4,0.6,0.5,0.9
    c0.3,0.9,0.1,1.6-0.6,2c-0.4,0.3-0.9,0.4-1.3,0.3c-0.4-0.1-0.8-0.2-1.1-0.5c-0.8-0.7-1.3-1.7-1.5-3c-0.1-1.5-0.1-3.1,0-4.9
    c0.1-1.8,0.3-3.7,0.6-5.6c0.3-1.9,0.6-3.8,1-5.6c0.4-1.8,0.8-3.5,1.1-4.9c-0.5,0-0.9-0.1-1.3-0.1c-0.4,0-0.9-0.1-1.3-0.2
    c-0.6-0.1-1-0.3-1.2-0.7c-0.2-0.4-0.3-0.8-0.2-1.2c0-0.4,0.2-0.8,0.6-1.1c0.3-0.3,0.8-0.5,1.4-0.4c0.4,0,0.9,0.1,1.5,0.1
    c0.5,0.1,1.1,0.1,1.6,0.1c0.6-1.8,1.3-3.5,2.1-5.2c0.8-1.7,1.7-3.2,2.7-4.6c1.1-1.4,2.3-2.6,3.5-3.5c0.4-0.3,0.8-0.5,1.4-0.8
    c0.5-0.3,1.2-0.6,1.8-0.8c0.7-0.2,1.3-0.4,2-0.5c0.7-0.1,1.4-0.1,2.1,0c0.7,0.1,1.3,0.4,1.8,0.7c0.5,0.3,0.9,0.7,1.2,1.2
    c0.3,0.4,0.5,0.9,0.7,1.4c0.1,0.5,0.2,1,0.1,1.5C205,79.8,204.9,80.3,204.7,80.8z"/>
  <path fill="#FFFFFF" d="M216,100.8c0,0.2-0.2,0.5-0.3,0.7c-0.2,0.2-0.4,0.4-0.7,0.5c-0.6,0.1-1.3,0-2.1-0.1
    c0.1,0.3,0.3,0.7,0.3,1.1c0.1,0.5,0.1,1,0,1.5c-0.1,0.6-0.3,1.1-0.6,1.8c-0.3,0.6-0.8,1.2-1.5,1.7c-2.1,1.7-4.2,2.8-6.3,3.3
    c-0.9,0.2-1.9,0.4-2.9,0.3c-1,0-2-0.1-3.1-0.3c-2.8-0.5-4.6-1.7-5.3-3.7c-0.6-1.6-0.4-3.6,0.6-6c0.4-0.9,0.8-1.7,1.3-2.5
    c0.5-0.8,1.2-1.5,1.8-2.1c0.7-0.6,1.4-1.1,2.2-1.6c0.8-0.4,1.6-0.8,2.4-1c0.7-0.2,1.5-0.2,2.2-0.1c0.7,0.2,1.4,0.6,1.9,1.3
    c0.3,0,0.6,0,1,0c0.3,0,0.6,0.1,0.9,0.2c0.5,0.2,1,0.4,1.6,0.8c0.5,0.4,1,0.8,1.3,1.2l3.8,0.7c0.6,0.1,1,0.4,1.3,0.8
    C216.1,99.9,216.2,100.3,216,100.8z M208.8,105.3c0.7-0.6,1-1.3,0.9-2.1c-0.1-0.8-0.4-1.5-1.1-2.2c-0.5-0.1-1-0.2-1.6-0.3
    c-0.6-0.1-1.2-0.2-1.8-0.4c-0.9-0.2-1.5-0.4-2-0.8c-0.5-0.4-0.6-0.8-0.3-1.2c-0.1-0.1-0.3-0.2-0.5-0.1c-0.2,0-0.4,0.1-0.7,0.1
    c-0.7,0.3-1.5,0.9-2.4,1.7c-0.9,0.8-1.5,1.8-1.9,3c-0.6,1.4-0.7,2.5-0.3,3.3c0.4,0.8,1.1,1.4,2.2,1.6c0.9,0.2,1.7,0.3,2.5,0.3
    c0.7,0,1.4-0.1,2-0.2c0.9-0.2,1.7-0.5,2.6-1C207.3,106.5,208.1,105.9,208.8,105.3z"/>
  <path fill="#FFFFFF" d="M235,104.7c-0.3,0.3-0.6,0.5-1,0.5c-0.4,0.1-0.8-0.1-1.2-0.4c-0.3-0.2-0.6-0.4-0.8-0.5
    c-0.3-0.1-0.5-0.1-0.8-0.1c-0.5,0-1.1,0-1.8,0.1c-0.7,0.1-1.5,0.2-2.2,0.4c-0.8,0.2-1.6,0.4-2.4,0.7c-0.8,0.3-1.6,0.5-2.3,0.8
    c-0.6,0.2-1.1,0.5-1.5,0.8c-0.4,0.3-0.8,0.5-1,0.8c-0.3,0.4-0.6,0.8-0.7,1.1c-0.2,0.4-0.3,0.8-0.5,1.2c-0.2,0.6-0.4,1-0.8,1.2
    c-0.4,0.2-0.8,0.3-1.2,0.2c-0.4-0.1-0.8-0.3-1.1-0.7s-0.4-0.9-0.3-1.5c0.1-0.6,0.2-1.3,0.3-2c0.1-0.8,0.3-1.5,0.4-2.3
    c0.1-0.8,0.3-1.6,0.5-2.3c0.2-0.7,0.4-1.3,0.5-1.9c-0.2-0.1-0.3-0.2-0.3-0.4c0-0.2,0.1-0.4,0.2-0.5c0.2-0.2,0.4-0.5,0.6-0.7
    c0.2-0.3,0.4-0.5,0.5-0.8c0.2-0.4,0.6-0.6,1-0.7c0.4,0,0.8,0,1.2,0.2c0.3,0.2,0.6,0.4,0.8,0.8c0.2,0.3,0.2,0.7,0.1,1.1
    c-0.1,0.3-0.2,0.6-0.4,0.9c-0.1,0.4-0.3,0.7-0.4,1.1c-0.1,0.4-0.2,0.8-0.3,1.2c-0.1,0.4-0.2,0.7-0.2,1c0.3-0.2,0.5-0.4,0.7-0.5
    c0.2-0.1,0.5-0.2,0.8-0.4c0.8-0.3,1.6-0.7,2.6-1c1-0.3,2-0.6,3-0.8c1-0.2,2-0.4,2.9-0.4c1-0.1,1.8-0.1,2.5,0
    c0.6,0.1,1.2,0.3,1.6,0.5c0.5,0.3,0.8,0.5,1.1,0.8c0.4,0.4,0.5,0.9,0.4,1.4C235.5,104,235.3,104.4,235,104.7z"/>
  <path fill="#FFFFFF" d="M252.7,102c0.5,0.4,0.7,0.9,0.7,1.4c0,0.5-0.2,0.9-0.4,1.2c-0.3,0.3-0.7,0.6-1.1,0.7
    c-0.5,0.1-0.9,0-1.2-0.4c-0.2-0.2-0.3-0.3-0.6-0.3c-0.2-0.1-0.4-0.1-0.6-0.2c-0.6-0.1-1.2-0.1-2,0c-0.8,0.1-1.6,0.3-2.4,0.5
    c-0.8,0.2-1.7,0.6-2.5,1c-0.8,0.4-1.6,0.8-2.3,1.3c-0.6,0.4-1.1,1-1.7,1.6c-0.5,0.6-0.9,1.2-1.1,1.7c-0.1,0.5-0.1,0.8,0.1,1
    c0.2,0.2,0.7,0.2,1.5-0.1c0.5-0.2,1-0.4,1.6-0.6c0.6-0.2,1.2-0.4,1.8-0.6c0.6-0.2,1.2-0.4,1.8-0.5c0.6-0.1,1.1-0.2,1.6-0.3
    c0.7,0,1.3,0.1,1.9,0.3c0.5,0.3,0.9,0.7,1.1,1.4c0.1,0.4,0.2,1.1,0.2,2.1c0,1,0,2.1-0.2,3.3c-0.1,1.2-0.3,2.5-0.6,3.8
    c-0.3,1.3-0.7,2.6-1.2,3.7c-0.8,1.8-1.9,3.5-3.3,5c-1.4,1.5-3.3,2.7-5.5,3.6c-0.5,0.2-1,0.2-1.5-0.1c-0.5-0.2-0.8-0.6-1-0.9
    c-0.2-0.4-0.2-0.8-0.1-1.3c0.1-0.4,0.5-0.8,1.1-1c1.8-0.7,3.3-1.7,4.3-2.8c1.1-1.2,1.9-2.5,2.5-3.9c0.7-1.7,1.1-3.2,1.3-4.5
    c0.1-1.3,0.2-2.6,0.2-3.9c0-0.4-0.1-0.7-0.3-0.8c-0.2-0.1-0.5-0.2-0.9-0.1c-0.6,0.1-1.4,0.4-2.4,0.7c-1,0.3-1.9,0.6-2.7,0.9
    c-1,0.4-1.9,0.5-2.7,0.5c-0.8,0-1.5-0.2-2-0.6c-0.5-0.4-0.9-0.8-1.1-1.5c-0.2-0.6-0.3-1.4-0.1-2.2c0.3-1.4,0.9-2.7,1.9-3.9
    c1-1.2,2.1-2.2,3.3-3.1c0.8-0.6,1.6-1.1,2.6-1.6c1-0.5,2-0.9,3-1.2c1-0.3,2.1-0.5,3.2-0.6c1.1-0.1,2.1-0.1,3,0.1
    c0.5,0.1,1,0.2,1.4,0.3C252,101.4,252.4,101.6,252.7,102z"/>
  <path fill="#FFFFFF" d="M272.5,117.7c0.1,0.4,0.1,0.9-0.1,1.3c-0.2,0.4-0.6,0.7-1.3,0.8c-0.8,0.1-1.7,0.3-2.9,0.5
    c-1.2,0.2-2.5,0.4-3.9,0.6c-1.4,0.2-2.9,0.2-4.4,0.1c-1.5-0.1-3-0.4-4.3-0.9c-1.4-0.5-2.4-1.2-3-2.1c-1.2-1.6-1.3-3.6-0.4-6
    c0.4-1.1,0.9-2.2,1.5-3.1c0.6-0.9,1.2-1.8,1.9-2.5c0.6-0.7,1.3-1.4,1.9-1.9c0.6-0.6,1.2-1,1.7-1.4c0.5-0.4,1-0.7,1.5-0.9
    c0.5-0.3,0.9-0.5,1.3-0.5c0.4-0.1,0.8-0.2,1.3-0.3c0.5-0.1,1-0.1,1.4,0c0.5,0,1,0.1,1.4,0.3c0.5,0.1,0.9,0.4,1.2,0.7
    c0.4,0.4,0.7,0.8,0.9,1.3c0.2,0.5,0.3,1,0.2,1.5c0,0.5-0.1,1.1-0.2,1.6c-0.2,0.6-0.3,1.1-0.6,1.6c-0.5,1-1.2,1.8-2.1,2.6
    c-0.9,0.7-1.9,1.4-3.1,1.8c-1.1,0.5-2.3,0.9-3.6,1.1c-1.3,0.2-2.4,0.3-3.5,0.2c-0.2,0.8-0.2,1.4,0,1.9c0.3,0.5,0.7,0.9,1.4,1.1
    c1,0.4,2.1,0.7,3.4,0.7c1.3,0,2.6,0,3.9-0.2c1.3-0.1,2.5-0.3,3.7-0.6c1.2-0.2,2.1-0.4,2.9-0.5c0.5-0.1,0.9,0,1.2,0.3
    C272.2,117,272.4,117.3,272.5,117.7z M264.6,106.8c0.4-0.9,0.4-1.6,0.2-1.9c-0.2-0.2-0.5-0.3-0.9-0.3c-0.4,0-0.7,0-1,0.1
    c-0.4,0.2-1,0.5-1.7,0.9c-0.8,0.5-1.5,1.2-2.3,2c-0.8,0.8-1.4,1.7-1.9,2.6c0.7,0,1.4-0.1,2.2-0.3c0.8-0.2,1.6-0.4,2.3-0.7
    c0.7-0.3,1.4-0.7,1.9-1.1C264,107.8,264.4,107.4,264.6,106.8z"/>
  <path fill="#FFFFFF" d="M287.9,111.7c-0.1,0.4-0.3,0.7-0.6,1c-0.3,0.3-0.8,0.4-1.4,0.3c-0.7-0.1-1.7-0.3-2.9-0.6
    c-1.3-0.3-2.5-0.6-3.7-0.8c-0.2,0.9-0.3,1.8-0.4,2.7c-0.1,1-0.2,1.9-0.2,2.8c-0.1,0.9-0.1,1.8-0.1,2.6c0,0.8,0,1.5,0,2.2
    c0,0.5-0.1,1-0.5,1.3c-0.3,0.3-0.7,0.5-1.1,0.5c-0.5,0-0.9-0.1-1.3-0.4c-0.4-0.3-0.7-0.8-0.7-1.5c-0.1-1.4-0.1-3.1,0.1-5
    c0.1-1.9,0.4-3.8,0.8-5.8l-3.4-0.6c-0.6-0.1-1-0.3-1.2-0.7c-0.2-0.4-0.3-0.8-0.2-1.2c0.1-0.4,0.3-0.8,0.6-1.1
    c0.3-0.3,0.8-0.4,1.4-0.4c0.4,0.1,0.9,0.2,1.5,0.3c0.6,0.1,1.2,0.2,1.9,0.3c0.2-1,0.4-2,0.7-3.3c0.3-1.2,0.7-2.5,1.1-3.8
    c0.4-1.3,0.9-2.6,1.3-3.9c0.5-1.3,1-2.5,1.5-3.7c-0.3-0.2-0.4-0.5-0.2-0.9c0.1-0.2,0.3-0.4,0.5-0.7c0.2-0.3,0.5-0.5,0.7-0.8
    c0.1-0.1,0.2-0.3,0.3-0.5c0.1-0.2,0.2-0.3,0.3-0.4c0.3-0.5,0.7-0.7,1.2-0.7c0.5,0,0.9,0.1,1.3,0.4c0.3,0.2,0.5,0.6,0.7,0.9
    c0.2,0.4,0.2,0.8,0.1,1.3c-0.1,0.3-0.2,0.6-0.3,0.8c-0.2,0.2-0.3,0.4-0.5,0.6c-0.5,1-0.9,2.1-1.4,3.4c-0.5,1.3-1,2.6-1.4,4
    c-0.5,1.4-0.9,2.7-1.2,4.1c-0.4,1.4-0.6,2.6-0.9,3.7c0.3,0.1,0.8,0.2,1.4,0.3c0.6,0.1,1.2,0.3,1.9,0.4c0.7,0.2,1.3,0.3,2,0.5
    c0.7,0.2,1.2,0.3,1.7,0.5c0.5,0.1,0.8,0.4,0.9,0.8C287.9,111,288,111.3,287.9,111.7z"/>
  <path fill="#FFFFFF" d="M320.3,117.7c-0.1,0.4-0.3,0.7-0.6,1c-0.3,0.3-0.8,0.4-1.4,0.3c-0.7-0.1-1.7-0.3-2.9-0.6
    c-1.3-0.3-2.5-0.6-3.7-0.8c-0.2,0.9-0.3,1.8-0.4,2.7c-0.1,1-0.2,1.9-0.2,2.8c-0.1,0.9-0.1,1.8-0.1,2.6c0,0.8,0,1.5,0,2.2
    c0,0.5-0.1,1-0.5,1.3c-0.3,0.3-0.7,0.5-1.1,0.5c-0.5,0-0.9-0.1-1.3-0.4c-0.4-0.3-0.7-0.8-0.7-1.5c-0.1-1.4-0.1-3.1,0.1-5
    c0.1-1.9,0.4-3.8,0.8-5.8l-3.4-0.6c-0.6-0.1-1-0.3-1.2-0.7c-0.2-0.4-0.3-0.8-0.2-1.2c0.1-0.4,0.3-0.8,0.6-1.1
    c0.3-0.3,0.8-0.4,1.4-0.4c0.4,0.1,0.9,0.2,1.5,0.3c0.6,0.1,1.2,0.2,1.9,0.3c0.2-1,0.4-2,0.7-3.3c0.3-1.2,0.7-2.5,1.1-3.8
    c0.4-1.3,0.9-2.6,1.3-3.9c0.5-1.3,1-2.5,1.5-3.7c-0.3-0.2-0.4-0.5-0.2-0.9c0.1-0.2,0.3-0.4,0.5-0.7c0.2-0.3,0.5-0.5,0.7-0.8
    c0.1-0.1,0.2-0.3,0.3-0.5c0.1-0.2,0.2-0.3,0.3-0.4c0.3-0.5,0.7-0.7,1.2-0.7c0.5,0,0.9,0.1,1.3,0.4c0.3,0.2,0.5,0.6,0.7,0.9
    s0.2,0.8,0.1,1.3c-0.1,0.3-0.2,0.6-0.3,0.8c-0.2,0.2-0.3,0.4-0.5,0.6c-0.5,1-0.9,2.1-1.4,3.4c-0.5,1.3-1,2.6-1.4,4
    c-0.5,1.4-0.9,2.7-1.2,4.1c-0.4,1.4-0.6,2.6-0.9,3.7c0.3,0.1,0.8,0.2,1.4,0.3c0.6,0.1,1.2,0.3,1.9,0.4c0.7,0.2,1.3,0.3,2,0.5
    c0.7,0.2,1.2,0.3,1.7,0.5c0.5,0.1,0.8,0.4,0.9,0.8C320.3,116.9,320.4,117.3,320.3,117.7z"/>
  <path fill="#FFFFFF" d="M340.2,123.7c0,0.2-0.2,0.5-0.3,0.7c-0.2,0.2-0.4,0.4-0.7,0.5c-0.6,0.1-1.3,0-2.1-0.1
    c0.1,0.3,0.3,0.7,0.3,1.1c0.1,0.5,0.1,1,0,1.5c-0.1,0.6-0.3,1.1-0.6,1.8c-0.3,0.6-0.8,1.2-1.5,1.7c-2.1,1.7-4.2,2.8-6.3,3.3
    c-0.9,0.2-1.9,0.4-2.9,0.3c-1,0-2-0.1-3.1-0.3c-2.8-0.5-4.6-1.7-5.3-3.7c-0.6-1.6-0.4-3.6,0.6-6c0.4-0.9,0.8-1.7,1.3-2.5
    c0.5-0.8,1.2-1.5,1.8-2.1c0.7-0.6,1.4-1.1,2.2-1.6c0.8-0.4,1.6-0.8,2.4-1c0.7-0.2,1.5-0.2,2.2-0.1c0.7,0.2,1.4,0.6,1.9,1.3
    c0.3,0,0.6,0,1,0c0.3,0,0.6,0.1,0.9,0.2c0.5,0.2,1,0.4,1.6,0.8c0.5,0.4,1,0.8,1.3,1.2l3.8,0.7c0.6,0.1,1,0.4,1.3,0.8
    C340.3,122.7,340.4,123.2,340.2,123.7z M333,128.2c0.7-0.6,1-1.3,0.9-2.1c-0.1-0.8-0.4-1.5-1.1-2.2c-0.5-0.1-1-0.2-1.6-0.3
    c-0.6-0.1-1.2-0.2-1.8-0.4c-0.9-0.2-1.5-0.4-2-0.8c-0.5-0.4-0.6-0.8-0.3-1.2c-0.1-0.1-0.3-0.2-0.5-0.1c-0.2,0-0.4,0.1-0.7,0.1
    c-0.7,0.3-1.5,0.9-2.4,1.7c-0.9,0.8-1.5,1.8-1.9,3c-0.6,1.4-0.7,2.5-0.3,3.3c0.4,0.8,1.1,1.4,2.2,1.6c0.9,0.2,1.7,0.3,2.5,0.3
    c0.7,0,1.4-0.1,2-0.2c0.9-0.2,1.7-0.5,2.6-1C331.5,129.4,332.3,128.8,333,128.2z"/>
  <path fill="#FFFFFF" d="M63.4,117.2c-0.2,0.2-0.5,0.4-0.9,0.5c-0.4,0.1-0.7,0-1.1-0.2c-0.4-0.2-0.8-0.5-1.2-0.9
    c-0.4-0.1-1-0.1-1.7-0.1c-0.7,0-1.5,0.1-2.2,0.3c-0.8,0.1-1.6,0.3-2.4,0.5c-0.8,0.2-1.5,0.5-2.1,0.7c-0.9,0.4-1.4,0.8-1.5,1.2
    c-0.1,0.4,0.2,0.9,0.9,1.4c0.8,0.7,1.7,1.3,2.5,1.8c0.8,0.6,1.7,1.3,2.6,2.3c0.6,0.7,1,1.5,1.1,2.4c0.2,0.9,0.2,1.7,0,2.5
    c-0.2,0.9-0.5,1.7-0.9,2.5c-0.4,0.8-0.9,1.5-1.5,2.1c-1,1.1-2.2,2.1-3.5,2.9c-1.3,0.9-2.9,1.6-4.6,2.2c-0.8,0.3-1.6,0.3-2.3,0.2
    c-0.7-0.1-1.4-0.4-2.1-0.9c-0.6-0.5-0.9-1-0.9-1.5c0-0.5,0.1-1,0.3-1.4c0.3-0.4,0.7-0.7,1.2-0.8c0.5-0.1,1,0.1,1.5,0.6
    c0.2,0.2,0.5,0.4,0.8,0.4c0.3,0,0.6,0,0.9-0.1c1.1-0.4,2.3-1,3.4-1.7c1.1-0.7,2-1.5,2.7-2.2c0.4-0.5,0.8-0.9,1-1.4
    c0.2-0.5,0.4-0.9,0.5-1.3c0.2-0.8,0-1.5-0.4-2.1c-0.5-0.6-1.2-1.3-2.1-1.9c-0.9-0.7-1.9-1.4-3-2.1c-1-0.6-1.7-1.3-2.1-2.1
    c-0.4-0.7-0.5-1.5-0.4-2.2c0.1-0.7,0.5-1.4,1.2-2.1c0.7-0.7,1.7-1.3,2.9-1.8c0.7-0.3,1.4-0.6,2.3-0.9c0.9-0.3,1.8-0.5,2.8-0.7
    c1-0.2,1.9-0.3,3-0.4c1-0.1,2,0,2.9,0.1c0.6,0.1,1.2,0.3,1.6,0.6c0.5,0.3,0.8,0.6,1,1c0.3,0.4,0.4,0.9,0.3,1.3
    C63.9,116.5,63.7,116.9,63.4,117.2z"/>
  <path fill="#FFFFFF" d="M77.2,123.8c-0.1,0.4-0.3,0.7-0.6,1c-0.3,0.3-0.8,0.4-1.4,0.3c-0.7-0.1-1.7-0.3-2.9-0.6
    c-1.3-0.3-2.5-0.6-3.7-0.8c-0.2,0.9-0.3,1.8-0.4,2.7c-0.1,1-0.2,1.9-0.2,2.8c-0.1,0.9-0.1,1.8-0.1,2.6c0,0.8,0,1.5,0,2.2
    c0,0.5-0.1,1-0.5,1.3c-0.3,0.3-0.7,0.5-1.1,0.5c-0.5,0-0.9-0.1-1.3-0.4c-0.4-0.3-0.7-0.8-0.7-1.5c-0.1-1.4-0.1-3.1,0.1-5
    c0.1-1.9,0.4-3.8,0.8-5.8l-3.4-0.6c-0.6-0.1-1-0.3-1.2-0.7c-0.2-0.4-0.3-0.8-0.2-1.2c0.1-0.4,0.3-0.8,0.6-1.1
    c0.3-0.3,0.8-0.4,1.4-0.4c0.4,0.1,0.9,0.2,1.5,0.3c0.6,0.1,1.2,0.2,1.9,0.3c0.2-1,0.4-2,0.7-3.3c0.3-1.2,0.7-2.5,1.1-3.8
    c0.4-1.3,0.9-2.6,1.3-3.9c0.5-1.3,1-2.5,1.5-3.7c-0.3-0.2-0.4-0.5-0.2-0.9c0.1-0.2,0.3-0.4,0.5-0.7c0.2-0.3,0.5-0.5,0.7-0.8
    c0.1-0.1,0.2-0.3,0.3-0.5c0.1-0.2,0.2-0.3,0.3-0.4c0.3-0.5,0.7-0.7,1.2-0.7c0.5,0,0.9,0.1,1.3,0.4c0.3,0.2,0.5,0.6,0.7,0.9
    c0.2,0.4,0.2,0.8,0.1,1.3c-0.1,0.3-0.2,0.6-0.3,0.8c-0.2,0.2-0.3,0.4-0.5,0.6c-0.5,1-0.9,2.1-1.4,3.4c-0.5,1.3-1,2.6-1.4,4
    c-0.5,1.4-0.9,2.7-1.2,4.1c-0.4,1.4-0.6,2.6-0.9,3.7c0.3,0.1,0.8,0.2,1.4,0.3c0.6,0.1,1.2,0.3,1.9,0.4c0.7,0.2,1.3,0.3,2,0.5
    c0.7,0.2,1.2,0.3,1.7,0.5c0.5,0.1,0.8,0.4,0.9,0.8C77.2,123,77.3,123.4,77.2,123.8z"/>
  <path fill="#FFFFFF" d="M100.8,136.6c0.2,0.5,0.3,0.9,0.1,1.5c-0.2,0.5-0.5,0.9-1.1,1.1c-1.2,0.4-2.4,0.7-3.9,0.9
    c-1.4,0.2-2.7,0.3-3.9,0.2c-1.4-0.1-2.4-0.4-3.1-0.8c-0.7-0.4-1.2-1.1-1.6-2c-0.2-0.3-0.3-0.8-0.3-1.4c-0.1-0.6-0.1-1.1,0-1.5
    c0-0.3-0.1-0.4-0.3-0.5c-0.2-0.1-0.4-0.1-0.7,0.1c-0.4,0.2-0.8,0.4-1.4,0.7c-0.5,0.3-1.1,0.6-1.8,1c-0.6,0.4-1.3,0.7-1.9,1.1
    c-0.6,0.4-1.3,0.7-1.8,1.1c-1.3,0.7-2.5,0.9-3.5,0.8c-1-0.1-1.8-0.6-2.3-1.3c-0.7-0.9-0.9-2-0.6-3.4c0.2-0.7,0.4-1.3,0.7-2
    c0.3-0.6,0.7-1.2,1.1-1.8c0.6-0.8,1.4-1.6,2.2-2.4c0.8-0.8,1.7-1.5,2.6-2.1c0.9-0.6,1.8-1.2,2.7-1.7c0.9-0.5,1.7-0.9,2.4-1.2
    c0.6-0.3,1.3-0.5,2.1-0.8c0.8-0.3,1.6-0.5,2.5-0.5c0.9,0,1.7,0.1,2.6,0.4c0.9,0.3,1.7,0.9,2.4,1.8c0.3,0.4,0.5,0.8,0.4,1.2
    c0,0.4-0.2,0.8-0.4,1.1c-0.3,0.4-0.8,0.6-1.3,0.6c-0.6,0-1.1-0.1-1.5-0.5c-0.6-0.7-1.3-1-2.2-1.1c-0.9,0-2,0.3-3.2,0.8
    c-0.6,0.3-1.3,0.6-2.1,1.1c-0.8,0.5-1.6,1-2.4,1.6c-0.8,0.6-1.5,1.2-2.2,1.9c-0.7,0.7-1.3,1.3-1.8,1.9c-0.3,0.3-0.5,0.8-0.6,1.3
    c-0.2,0.5-0.1,0.9,0.1,1.1c0.3,0.3,0.8,0.3,1.6-0.1c0.5-0.3,1.2-0.7,2-1.2c0.8-0.5,1.6-0.9,2.5-1.4c0.9-0.5,1.7-0.9,2.5-1.3
    c0.8-0.4,1.5-0.7,2.2-1c0.5-0.2,1-0.3,1.5-0.3c0.5,0,0.9,0.1,1.3,0.2c0.4,0.2,0.6,0.4,0.8,0.8c0.2,0.3,0.2,0.8,0.1,1.3
    c-0.1,0.6-0.2,1.2-0.3,1.7c-0.1,0.5,0,1,0,1.5c0.1,0.6,0.3,1,0.6,1.2c0.3,0.2,0.7,0.4,1.2,0.5c0.4,0,0.9,0,1.4,0
    c0.5,0,1.1-0.1,1.7-0.2c0.6-0.1,1.1-0.2,1.7-0.3c0.5-0.1,1-0.2,1.4-0.3c0.5-0.1,0.9-0.1,1.2,0C100.4,136.1,100.6,136.3,100.8,136.6
    z"/>
  <path fill="#FFFFFF" d="M116.7,133.8c-0.3,0.3-0.6,0.5-1,0.5c-0.4,0.1-0.8-0.1-1.2-0.4c-0.3-0.2-0.6-0.4-0.8-0.5
    c-0.3-0.1-0.5-0.1-0.8-0.1c-0.5,0-1.1,0-1.8,0.1c-0.7,0.1-1.5,0.2-2.2,0.4c-0.8,0.2-1.6,0.4-2.4,0.7c-0.8,0.3-1.6,0.5-2.3,0.8
    c-0.6,0.2-1.1,0.5-1.5,0.8c-0.4,0.3-0.8,0.5-1,0.8c-0.3,0.4-0.6,0.8-0.7,1.1c-0.2,0.4-0.3,0.8-0.5,1.2c-0.2,0.6-0.4,1-0.8,1.2
    c-0.4,0.2-0.8,0.3-1.2,0.2c-0.4-0.1-0.8-0.3-1.1-0.7c-0.3-0.4-0.4-0.9-0.3-1.5c0.1-0.6,0.2-1.3,0.3-2c0.1-0.8,0.3-1.5,0.4-2.3
    c0.1-0.8,0.3-1.6,0.5-2.3c0.2-0.7,0.4-1.3,0.5-1.9c-0.2-0.1-0.3-0.2-0.3-0.4c0-0.2,0.1-0.4,0.2-0.5c0.2-0.2,0.4-0.5,0.6-0.7
    c0.2-0.3,0.4-0.5,0.5-0.8c0.2-0.4,0.6-0.6,1-0.7c0.4,0,0.8,0,1.2,0.2c0.3,0.2,0.6,0.4,0.8,0.8c0.2,0.3,0.2,0.7,0.1,1.1
    c-0.1,0.3-0.2,0.6-0.4,0.9c-0.1,0.4-0.3,0.7-0.4,1.1c-0.1,0.4-0.2,0.8-0.3,1.2c-0.1,0.4-0.2,0.7-0.2,1c0.3-0.2,0.5-0.4,0.7-0.5
    c0.2-0.1,0.5-0.2,0.8-0.4c0.8-0.3,1.6-0.7,2.6-1c1-0.3,2-0.6,3-0.8c1-0.2,2-0.4,2.9-0.4c1-0.1,1.8-0.1,2.5,0
    c0.6,0.1,1.2,0.3,1.6,0.5c0.5,0.3,0.8,0.5,1.1,0.8c0.4,0.4,0.5,0.9,0.4,1.4C117.2,133.1,117,133.5,116.7,133.8z"/>
  <path fill="#FFFFFF" d="M156,140.6c0,0.2-0.2,0.5-0.3,0.7c-0.2,0.2-0.4,0.4-0.7,0.5c-0.6,0.1-1.3,0-2.1-0.1
    c0.1,0.3,0.3,0.7,0.3,1.1c0.1,0.5,0.1,1,0,1.5c-0.1,0.6-0.3,1.1-0.6,1.8c-0.3,0.6-0.8,1.2-1.5,1.7c-2.1,1.7-4.2,2.8-6.3,3.3
    c-0.9,0.2-1.9,0.4-2.9,0.3c-1,0-2-0.1-3.1-0.3c-2.8-0.5-4.6-1.7-5.3-3.7c-0.6-1.6-0.4-3.6,0.6-6c0.4-0.9,0.8-1.7,1.3-2.5
    c0.5-0.8,1.2-1.5,1.8-2.1c0.7-0.6,1.4-1.1,2.2-1.6c0.8-0.4,1.6-0.8,2.4-1c0.7-0.2,1.5-0.2,2.2-0.1c0.7,0.2,1.4,0.6,1.9,1.3
    c0.3,0,0.6,0,1,0c0.3,0,0.6,0.1,0.9,0.2c0.5,0.2,1,0.4,1.6,0.8c0.5,0.4,1,0.8,1.3,1.2l3.8,0.7c0.6,0.1,1,0.4,1.3,0.8
    C156,139.6,156.1,140.1,156,140.6z M148.8,145.1c0.7-0.6,1-1.3,0.9-2.1c-0.1-0.8-0.4-1.5-1.1-2.2c-0.5-0.1-1-0.2-1.6-0.3
    c-0.6-0.1-1.2-0.2-1.8-0.4c-0.9-0.2-1.5-0.4-2-0.8c-0.5-0.4-0.6-0.8-0.3-1.2c-0.1-0.1-0.3-0.2-0.5-0.1c-0.2,0-0.4,0.1-0.7,0.1
    c-0.7,0.3-1.5,0.9-2.4,1.7c-0.9,0.8-1.5,1.8-1.9,3c-0.6,1.4-0.7,2.5-0.3,3.3c0.4,0.8,1.1,1.4,2.2,1.6c0.9,0.2,1.7,0.3,2.5,0.3
    c0.7,0,1.4-0.1,2-0.2c0.9-0.2,1.7-0.5,2.6-1C147.3,146.3,148,145.7,148.8,145.1z"/>
  <path fill="#FFFFFF" d="M188.5,153.1c0,0.3-0.2,0.7-0.4,1c-0.2,0.3-0.6,0.5-1,0.6c-0.2,0-0.4,0-0.6,0.1c-0.2,0-0.4,0-0.7-0.1
    c-0.7,0.1-1.5,0.3-2.4,0.4c-0.9,0.2-1.9,0.4-2.9,0.6c-1.8,0.4-3.4,0.3-4.8-0.3c-1.4-0.6-2.4-1.8-2.8-3.6c-0.3-1.2-0.5-2.3-0.4-3.4
    c0-1.1,0.1-1.9,0.1-2.6c0-0.4-0.2-0.7-0.6-0.9c-0.3-0.1-0.6-0.1-1-0.1c-0.4,0.1-0.8,0.2-1.2,0.3c-0.3,0.2-0.7,0.4-1.1,0.6
    c-0.4,0.3-0.9,0.5-1.3,0.8c-0.5,0.3-0.9,0.6-1.4,0.9c-0.5,0.3-1,0.5-1.4,0.7c-0.4,0.2-0.9,0.5-1.4,0.8c-0.5,0.3-1,0.7-1.5,1.1
    c-0.5,0.4-1,0.8-1.4,1.2c-0.4,0.4-0.7,0.7-0.9,1c-0.5,0.6-0.9,0.8-1.4,0.8c-0.5,0-1-0.1-1.4-0.4c-0.4-0.3-0.6-0.6-0.7-0.9
    c-0.1-0.3-0.1-0.7,0-1.1c0.2-0.8,0.3-1.7,0.5-2.5c0.2-0.9,0.3-1.7,0.5-2.5c0.1-0.8,0.3-1.6,0.4-2.3c0.1-0.7,0.2-1.3,0.3-1.8
    c-0.4-0.2-0.6-0.5-0.5-1c0.1-0.3,0.3-0.6,0.5-1c0.2-0.4,0.5-0.7,0.8-0.9c0.2-0.2,0.4-0.3,0.7-0.3c0.3,0,0.6,0,0.9,0.1
    c0.4,0.1,0.7,0.3,1,0.5c0.3,0.3,0.4,0.6,0.4,1c0,0.4-0.1,1-0.2,1.6c-0.1,0.6-0.2,1.3-0.3,2c-0.1,0.6-0.2,1.3-0.4,1.9
    c-0.1,0.6-0.2,1.2-0.4,1.7c0.5-0.5,1.1-1,1.8-1.4c0.7-0.4,1.4-0.8,2-1.2c0.8-0.5,1.5-1,2.4-1.5c0.8-0.5,1.6-0.9,2.3-1.2
    c0.8-0.4,1.6-0.7,2.5-0.8c0.9-0.2,1.7-0.1,2.5,0c0.9,0.1,1.6,0.5,2.2,1.2c0.6,0.6,0.8,1.5,0.8,2.6c-0.1,1.2-0.1,2.3-0.1,3.3
    c0,1,0.1,1.8,0.3,2.4c0.2,0.8,0.6,1.3,1.3,1.5c0.7,0.2,1.4,0.2,2.1,0.1c1.1-0.2,2.2-0.5,3.5-0.7c1.3-0.3,2.4-0.4,3.4-0.5
    c0.7,0,1.3,0.2,1.6,0.6C188.5,152,188.6,152.5,188.5,153.1z"/>
  <path fill="#FFFFFF" d="M236.2,148.9c0.2,0.5,0.1,1-0.1,1.4c-0.2,0.5-0.6,0.8-1.2,0.9c-0.4,0.1-0.9,0.1-1.5,0.1
    c-0.6,0-1.2-0.1-1.8-0.2c-0.6-0.1-1.2-0.2-1.8-0.3c-0.6-0.1-1.1-0.2-1.5-0.3l-1.8,9.6c0.4,0.2,0.6,0.5,0.5,1.1
    c-0.1,0.5-0.4,1.1-1,1.6l-1.9,10.1c-0.1,0.7-0.4,1.2-0.8,1.5c-0.4,0.3-0.8,0.4-1.3,0.3c-0.3-0.1-0.7-0.2-1-0.5
    c-0.3-0.3-0.6-0.6-0.7-1c-0.1-0.3-0.2-0.6-0.1-1c0-0.4,0.3-0.7,0.6-0.9l1.3-7.1c-2.2,0.5-4.2,0.9-6,1.1c-1.8,0.3-3.7,0.3-5.7,0.2
    c-1.9-0.1-3.5-0.4-4.9-0.9c-1.4-0.5-2.4-1.3-3.2-2.3c-0.7-0.9-1-2.1-1.1-3.5c-0.1-1.4,0.1-3.1,0.8-5c0.4-1.4,1.1-2.9,2.1-4.5
    c1-1.6,2.1-3.2,3.5-4.8c1.3-1.6,2.7-3.2,4.2-4.7c1.5-1.5,3-2.9,4.5-4.1c1.5-1.2,2.8-2.3,4.1-3.1c1.3-0.8,2.3-1.4,3.2-1.7
    c0.6-0.2,1.1-0.2,1.5-0.1c0.4,0.2,0.7,0.4,0.9,0.8c0.2,0.3,0.3,0.5,0.3,0.8c0,0.3,0,0.6-0.2,0.9c-0.2,0.4-0.4,0.7-0.7,0.9
    c-0.3,0.2-0.7,0.3-1.3,0.3c-0.7,0.3-1.6,0.8-2.6,1.5c-1.1,0.8-2.2,1.7-3.5,2.8c-1.3,1.1-2.5,2.3-3.8,3.6c-1.3,1.3-2.5,2.7-3.7,4.1
    c-1.2,1.4-2.2,2.8-3,4.2c-0.9,1.4-1.5,2.7-1.9,4c-0.7,2.5-0.6,4.2,0.2,5.3c0.4,0.6,1.1,1.1,1.9,1.4c0.8,0.3,1.9,0.5,3.1,0.5
    c0.9,0,1.8,0,2.9,0c1-0.1,2.1-0.2,3.1-0.3c1.1-0.2,2.1-0.3,3.2-0.6c1.1-0.2,2.1-0.5,3-0.7l1.9-10.3c-0.6-0.1-1.3-0.2-2.1-0.4
    c-0.8-0.2-1.5-0.3-2.2-0.5c-0.7-0.2-1.4-0.3-2.1-0.4c-0.7-0.1-1.2-0.2-1.5-0.2c-0.2,0.1-0.4,0.1-0.8,0.2c-0.3,0.1-0.7,0-1,0
    c-0.4-0.1-0.8-0.4-1-0.7c-0.2-0.3-0.4-0.6-0.5-1c-0.1-0.4,0-0.8,0.3-1.2c0.3-0.4,0.7-0.6,1.3-0.8c0.5-0.1,1.1-0.1,2,0
    c0.9,0.1,1.9,0.3,3,0.5c1.1,0.2,2.3,0.5,3.6,0.8c1.3,0.3,2.5,0.6,3.7,0.8c1.6,0.3,3,0.5,4.1,0.7c1.1,0.2,1.9,0.2,2.3,0.1
    c0.6-0.1,1.1,0,1.5,0.2C235.8,148.2,236.1,148.5,236.2,148.9z"/>
  <path fill="#FFFFFF" d="M252.1,165.4c0,0.4-0.2,0.7-0.6,1c-0.3,0.3-0.8,0.5-1.4,0.4c-0.4,0-1.1,0-1.9,0.1c-0.8,0.1-1.6,0.2-2.6,0.4
    c-0.9,0.2-1.8,0.3-2.8,0.4c-0.9,0.1-1.7,0.2-2.4,0.2c-2,0.1-3.5-0.2-4.5-0.9c-1-0.7-1.6-2-1.8-3.8c0-0.6,0-1.3,0.1-2.1
    c0.1-0.8,0.3-1.5,0.4-2c0.2-0.8,0.5-1.6,0.8-2.3c0.3-0.7,0.6-1.4,1-2c-0.2-0.1-0.2-0.2-0.2-0.4s0.1-0.4,0.2-0.5
    c0.2-0.3,0.4-0.6,0.7-0.9c0.3-0.4,0.6-0.7,0.9-0.9c0.4-0.2,0.7-0.3,1.1-0.2c0.4,0,0.7,0.2,1.1,0.3c0.4,0.2,0.7,0.5,0.9,0.9
    c0.2,0.4,0.1,0.7-0.2,1.1c-0.5,0.6-1,1.4-1.5,2.5c-0.6,1-1,2.1-1.2,3.1c-0.1,0.6-0.2,1.2-0.3,1.7c-0.1,0.5-0.1,0.9,0,1.3
    c0,0.6,0.2,1.1,0.6,1.4c0.3,0.3,1,0.4,1.8,0.4c0.5,0,1.3-0.1,2.1-0.2c0.9-0.2,1.8-0.3,2.8-0.5c1-0.2,1.9-0.3,2.9-0.5
    c0.9-0.1,1.7-0.1,2.3,0c0.6,0.1,1.1,0.3,1.3,0.8S252.1,164.9,252.1,165.4z M246.9,143c0.3,0.3,0.5,0.7,0.7,1.1
    c0.1,0.4,0.1,0.8,0.1,1.3c-0.1,0.4-0.2,0.8-0.5,1.2c-0.3,0.4-0.6,0.7-1.1,0.9c-0.6,0.3-1.2,0.3-1.9,0.2c-0.7-0.2-1.2-0.5-1.7-1.2
    c-0.4-0.7-0.6-1.4-0.4-2.2c0.2-0.8,0.7-1.4,1.6-1.8c0.5-0.3,1.1-0.3,1.7-0.2C246,142.3,246.5,142.6,246.9,143z"/>
  <path fill="#FFFFFF" d="M262.6,157.9c-0.1,0.4-0.3,0.7-0.6,1c-0.3,0.3-0.8,0.4-1.4,0.3c-0.7-0.1-1.7-0.3-2.9-0.6
    c-1.3-0.3-2.5-0.6-3.7-0.8c-0.2,0.9-0.3,1.8-0.4,2.7c-0.1,1-0.2,1.9-0.2,2.8c-0.1,0.9-0.1,1.8-0.1,2.6c0,0.8,0,1.5,0,2.2
    c0,0.5-0.1,1-0.5,1.3c-0.3,0.3-0.7,0.5-1.1,0.5c-0.5,0-0.9-0.1-1.3-0.4c-0.4-0.3-0.7-0.8-0.7-1.5c-0.1-1.4-0.1-3.1,0.1-5
    c0.1-1.9,0.4-3.8,0.8-5.8l-3.4-0.6c-0.6-0.1-1-0.3-1.2-0.7c-0.2-0.4-0.3-0.8-0.2-1.2c0.1-0.4,0.3-0.8,0.6-1.1
    c0.3-0.3,0.8-0.4,1.4-0.4c0.4,0.1,0.9,0.2,1.5,0.3c0.6,0.1,1.2,0.2,1.9,0.3c0.2-1,0.4-2,0.7-3.3c0.3-1.2,0.7-2.5,1.1-3.8
    c0.4-1.3,0.9-2.6,1.3-3.9c0.5-1.3,1-2.5,1.5-3.7c-0.3-0.2-0.4-0.5-0.2-0.9c0.1-0.2,0.3-0.4,0.5-0.7c0.2-0.3,0.5-0.5,0.7-0.8
    c0.1-0.1,0.2-0.3,0.3-0.5c0.1-0.2,0.2-0.3,0.3-0.4c0.3-0.5,0.7-0.7,1.2-0.7c0.5,0,0.9,0.1,1.3,0.4c0.3,0.2,0.5,0.6,0.7,0.9
    c0.2,0.4,0.2,0.8,0.1,1.3c-0.1,0.3-0.2,0.6-0.3,0.8c-0.2,0.2-0.3,0.4-0.5,0.6c-0.5,1-0.9,2.1-1.4,3.4c-0.5,1.3-1,2.6-1.4,4
    c-0.5,1.4-0.9,2.7-1.2,4.1c-0.4,1.4-0.6,2.6-0.9,3.7c0.3,0.1,0.8,0.2,1.4,0.3c0.6,0.1,1.2,0.3,1.9,0.4c0.7,0.2,1.3,0.3,2,0.5
    c0.7,0.2,1.2,0.3,1.7,0.5c0.5,0.1,0.8,0.4,0.9,0.8C262.6,157.2,262.7,157.5,262.6,157.9z"/>
  <path fill="#FFFFFF" d="M293.6,166.9c-0.1,0.4-0.3,0.8-0.7,1.1c-0.4,0.3-0.8,0.4-1.3,0.3l-3-0.6c-0.3,1.4-0.6,2.8-0.9,4.4
    c-0.3,1.5-0.6,3-0.9,4.3c-0.2,0.7-0.5,1.2-0.8,1.5c-0.4,0.3-0.8,0.4-1.2,0.4c-0.4-0.1-0.7-0.3-1-0.6c-0.3-0.3-0.5-0.8-0.7-1.3
    c-0.1-0.6-0.1-1.1,0.1-1.7c0.1-0.6,0.4-1.1,0.7-1.5c0.2-1,0.4-1.9,0.6-2.9c0.2-0.9,0.4-2,0.7-3.1c-2.4-0.4-4.7-0.8-6.9-1.2
    c-2.2-0.3-4.3-0.7-6-1.1c-0.2,0.8-0.4,1.4-0.5,1.9c-0.2,0.5-0.3,1-0.4,1.4c-0.1,0.4-0.2,0.8-0.3,1.3c-0.1,0.4-0.2,0.9-0.3,1.5
    c0.1,0.3,0.1,0.5,0.2,0.8c0.1,0.3,0.1,0.6,0.1,1c0,0.5-0.2,0.9-0.5,1.2c-0.3,0.3-0.6,0.5-1,0.6c-0.5,0.2-1.1,0.1-1.6-0.2
    c-0.5-0.3-0.8-0.8-1-1.6c-0.2-1-0.1-2.1,0.3-3.5c0.4-1.4,0.9-3.1,1.4-5c-0.4-0.1-0.9-0.2-1.6-0.3c-0.7-0.1-1.2-0.3-1.6-0.4
    c-0.6-0.2-1.1-0.4-1.3-0.8c-0.3-0.3-0.3-0.7-0.3-1.1c0.1-0.4,0.3-0.8,0.7-1.1c0.4-0.3,0.9-0.5,1.5-0.6c0.3-0.1,0.6-0.1,1,0
    c0.4,0.1,0.6,0.2,0.9,0.3c0.3,0.1,0.6,0.2,0.9,0.3c0.3,0.1,0.5,0.2,0.8,0.3c0.3-1,0.7-2.1,1-3.4c0.4-1.3,0.8-2.7,1.2-4.1
    c0.4-1.4,0.7-2.8,1.1-4.1c0.3-1.4,0.6-2.5,0.7-3.6c0.1-0.7,0.4-1.1,0.8-1.4c0.4-0.3,0.9-0.4,1.4-0.3c0.4,0,0.7,0.2,1.1,0.5
    c0.3,0.3,0.5,0.7,0.6,1.2c0,0.3,0,0.6-0.1,1c-0.1,0.4-0.2,0.7-0.5,0.9c-0.1,0.7-0.3,1.5-0.6,2.7c-0.3,1.1-0.6,2.3-1,3.6
    c-0.3,1.3-0.7,2.6-1.1,4c-0.4,1.3-0.7,2.6-1,3.7c0.9,0.2,1.8,0.3,2.9,0.5c1,0.2,2.1,0.4,3.2,0.5c1.1,0.2,2.2,0.4,3.3,0.6
    c1.1,0.2,2.2,0.4,3.2,0.6c0.3-1.3,0.6-2.7,1-4.3c0.3-1.6,0.7-3.1,1-4.7c0.3-1.5,0.6-2.9,0.9-4.2c0.3-1.3,0.4-2.2,0.5-2.9
    c0-0.1-0.1-0.3-0.2-0.5c-0.1-0.2-0.1-0.3-0.2-0.5c0-0.3,0-0.6,0-1c0-0.4,0.1-0.7,0.2-1.1c0.2-0.3,0.4-0.6,0.7-0.8
    c0.3-0.2,0.7-0.3,1-0.3c0.4,0,0.7,0.1,1.1,0.3c0.3,0.2,0.6,0.4,0.8,0.8c0.2,0.5,0.3,1,0.3,1.5c0,0.5,0,1-0.1,1.5
    c-0.1,0.7-0.3,1.8-0.6,3.2c-0.3,1.4-0.6,3-0.9,4.6c-0.3,1.6-0.7,3.2-1.1,4.8c-0.4,1.6-0.7,2.9-0.9,4l3,0.5c0.6,0.1,0.9,0.4,1.2,0.8
    C293.6,166,293.7,166.4,293.6,166.9z"/>
  <path fill="#FFFFFF" d="M323.9,178.1c0.1,0.4,0.1,0.8-0.1,1.3c-0.2,0.4-0.5,0.8-1.1,1c-0.8,0.3-1.7,0.5-2.9,0.7s-2.3,0.3-3.5,0.3
    c-1.1,0-2.1-0.3-3.1-0.8c-1-0.5-1.7-1.2-2.1-2.2c-0.2-0.5-0.3-1-0.3-1.5c-0.1-0.5,0-1.1,0-1.8c-0.8,0.7-1.7,1.4-2.7,2.1
    c-1.1,0.7-2,1.3-2.9,1.6c-1.4,0.6-2.7,0.9-4,1c-1.3,0-2.4-0.2-3.4-0.6c-0.9-0.4-1.5-0.9-2.1-1.6c-0.5-0.7-0.9-1.5-1-2.5
    c-0.1-0.9-0.1-1.9,0-2.9c0.1-1.1,0.4-2.1,0.6-3.1c0.3-1,0.6-2,1-2.8c0.4-0.9,0.7-1.5,1-2c0.3-0.5,0.6-0.8,1-0.9
    c0.4-0.1,0.8-0.2,1.2-0.1c0.5,0.1,0.8,0.3,1.1,0.8c0.3,0.4,0.3,0.9-0.1,1.5c-0.3,0.6-0.7,1.4-1,2.2c-0.3,0.8-0.6,1.6-0.8,2.4
    c-0.2,0.8-0.4,1.6-0.5,2.3c-0.1,0.7-0.1,1.4-0.1,1.9c0.1,0.8,0.5,1.4,1.2,1.8c0.5,0.3,1.1,0.4,1.9,0.3c0.8,0,1.5-0.2,2.4-0.6
    c2.1-1,3.8-2.1,5.3-3.5c1.5-1.4,2.6-2.8,3.4-4.2c0.3-0.4,0.6-0.6,1-0.7c0.4-0.1,0.8,0,1.3,0.1c0.4,0.2,0.7,0.5,0.9,0.9
    c0.2,0.4,0.2,0.8,0,1.2c-0.6,1.3-1,2.5-1.2,3.6c-0.2,1.1-0.3,2.1-0.1,2.9c0.1,0.7,0.4,1.1,0.8,1.4c0.4,0.3,0.9,0.4,1.5,0.5
    c0.9,0.1,1.8,0,2.7-0.1c0.9-0.2,1.7-0.4,2.4-0.6c0.6-0.2,1.1-0.2,1.4,0C323.6,177.2,323.8,177.6,323.9,178.1z"/>
  <path fill="#FFFFFF" d="M340.5,170.9c0.5,0.9,0.6,1.9,0.3,3.1c-0.3,1.2-1,2.5-2,3.7c-0.5,0.7-1.1,1.4-1.9,2.1
    c-0.7,0.7-1.5,1.4-2.3,2c-1.3,1-2.7,1.8-4.2,2.5c-1.5,0.7-3,1.3-4.5,1.9c-0.5,0.2-1,0.2-1.4,0c-0.4-0.2-0.7-0.5-0.9-1
    c-0.1-0.4-0.1-0.8,0-1.3c0.2-0.5,0.5-0.8,0.9-1c1.6-0.7,3.1-1.3,4.4-1.9c1.3-0.6,2.5-1.3,3.6-2.2c0.7-0.5,1.3-1.1,1.9-1.7
    c0.6-0.6,1.1-1.2,1.4-1.7c0.4-0.5,0.7-1,0.8-1.4c0.2-0.4,0.2-0.8,0-1.2c-0.1-0.2-0.3-0.4-0.6-0.6c-0.3-0.1-0.7-0.2-1.3-0.3
    c-0.8-0.1-1.8,0-3,0.2s-2.3,0.5-3.5,0.9c-0.6,0.2-1.2,0.5-1.7,0.8c-0.6,0.3-1,0.8-1.4,1.2c-0.1,0.1-0.2,0.3-0.2,0.4
    c-0.1,0.1-0.2,0.3-0.3,0.5c-0.1,0.4-0.2,0.8-0.3,1.3c-0.1,0.4-0.1,0.8-0.1,1.2c-0.1,0.5-0.4,0.9-0.8,1.2c-0.4,0.2-0.8,0.3-1.2,0.3
    c-0.4,0-0.8-0.2-1.1-0.6c-0.3-0.3-0.5-0.8-0.5-1.4c0-0.9,0.1-2,0.2-3.2c0.2-1.2,0.4-2.5,0.7-3.9c0.3-1.4,0.6-2.8,1-4.2
    c0.4-1.4,0.8-2.8,1.2-4.1c0.4-1.3,0.8-2.6,1.2-3.7c0.4-1.2,0.8-2.1,1.1-3c0.2-0.5,0.4-0.9,0.5-1.3c0.2-0.4,0.4-0.7,0.7-1
    c0.5-0.5,1.2-0.7,2-0.5c0.5,0.1,0.8,0.3,1.1,0.6c0.3,0.3,0.3,0.7,0.2,1.2c-0.1,0.4-0.3,0.7-0.5,1c-0.3,0.3-0.4,0.6-0.5,0.8
    c-0.3,0.9-0.7,1.8-1,2.9c-0.4,1.1-0.8,2.3-1.2,3.5c-0.4,1.2-0.8,2.5-1.2,3.9c-0.4,1.3-0.7,2.7-1,4c0.4-0.3,0.8-0.6,1.4-0.9
    c0.6-0.3,1.1-0.5,1.6-0.6c0.9-0.3,2.1-0.5,3.3-0.7c1.3-0.2,2.5-0.3,3.8-0.2c1.3,0,2.3,0.3,3.1,0.7
    C339.5,169.8,340.1,170.3,340.5,170.9z"/>
</g>
<path fill="#FFFFFF" d="M92.9,41.9c-0.1,1-0.7,1.5-1,2.3c-4.8,1.7-6.2-4.5-6.8-7.7c-2.3,0.4-3.7-2.2-5.5-3.2
  c-6.3-3.8-15.3-5.9-24.5-7.7c-16.2-3.2-35.5-3.6-44.5,4.8c6.7,0.1,12.1,2.2,17.7,4.2c5.2,3.4,11.6,8.1,16.8,13.2
  c2,2,4.5,3.9,3.5,6.8c-4.3,2.2-5-1.1-7.1-3.5c-0.4-0.5-1.5-0.9-2.3-1.6c-2.1-2.2-4.3-4.3-7.1-6.4c-5.3-4-10.9-6.6-17.4-7.1
  c-4.7-0.3-8.9,1-11.9,0c-1.1-0.3-3.4-2.2-2.9-4.5c0.8-3.5,11.8-5.7,11-9.7c1-0.1,0.9-1.3,2.3-1C17.2,13.8,27.5,7,35.2,2.3
  c2-1.2,3.5-3,5.8-1.9c1.6,0.8,2.5,3.2,2.3,5.2C35.8,8.6,31,14.3,25.2,19c16.4-1,41.8,2.4,56.7,11C87.3,33.1,89.8,36.6,92.9,41.9z"/>
</svg>
