<!-- Generator: Adobe Illustrator 18.1.1, SVG Export Plug-In  -->
<svg version="1.1"
   xmlns="http://www.w3.org/2000/svg" xmlns:xlink="http://www.w3.org/1999/xlink" xmlns:a="http://ns.adobe.com/AdobeSVGViewerExtensions/3.0/"
   x="0px" y="0px" width="52px" height="52px" viewBox="0 0 52 52" enable-background="new 0 0 52 52" xml:space="preserve">
<defs>
</defs>
<g>
  <g>
    <path fill="#52AEE1" d="M26,1c-1,0-2,0.1-2.9,0.2c-0.4,2.7-2.1,5-4.8,6.1c-2.7,1.1-5.6,0.6-7.7-1C9,7.6,7.6,9,6.4,10.5
      c1.6,2.2,2.1,5.1,1,7.7c-1.1,2.7-3.5,4.4-6.1,4.8C1.1,24,1,25,1,26c0,1,0.1,2,0.2,2.9c2.7,0.4,5,2.1,6.1,4.8
      c1.1,2.7,0.6,5.6-1,7.7c1.2,1.5,2.6,2.9,4.2,4.2c2.2-1.6,5.1-2.1,7.7-1c2.7,1.1,4.4,3.5,4.8,6.1C24,50.9,25,51,26,51
      c1,0,2-0.1,2.9-0.2c0.4-2.7,2.1-5,4.8-6.1c2.7-1.1,5.6-0.6,7.7,1c1.5-1.2,2.9-2.6,4.2-4.2c-1.6-2.2-2.1-5.1-1-7.7
      c1.1-2.7,3.5-4.4,6.1-4.8C50.9,28,51,27,51,26c0-1-0.1-2-0.2-2.9c-2.7-0.4-5-2.1-6.1-4.8c-1.1-2.7-0.6-5.6,1-7.7
      C44.4,9,43,7.6,41.5,6.4c-2.2,1.6-5.1,2.1-7.7,1c-2.7-1.1-4.4-3.5-4.8-6.1C28,1.1,27,1,26,1z M26,34.3c-4.6,0-8.3-3.7-8.3-8.3
      c0-4.6,3.7-8.3,8.3-8.3c4.6,0,8.3,3.7,8.3,8.3C34.3,30.6,30.6,34.3,26,34.3z"/>
    <path d="M26,52c-1,0-2-0.1-3.1-0.2l-0.8-0.1L22.1,51c-0.4-2.4-1.9-4.4-4.2-5.4c-2.2-0.9-4.8-0.6-6.8,0.8l-0.6,0.5l-0.6-0.5
      c-1.6-1.3-3.1-2.7-4.3-4.3l-0.5-0.6l0.5-0.6c1.5-2,1.8-4.5,0.8-6.8c-0.9-2.3-2.9-3.8-5.4-4.2l-0.8-0.1l-0.1-0.8C0.1,28,0,27,0,26
      c0-1,0.1-2,0.2-3.1l0.1-0.8L1,22.1c2.4-0.4,4.4-1.9,5.4-4.2c0.9-2.3,0.6-4.8-0.8-6.8l-0.5-0.6l0.5-0.6c1.3-1.6,2.7-3.1,4.3-4.3
      l0.6-0.5l0.6,0.5C13,7,15.7,7.3,17.9,6.4c2.3-0.9,3.8-2.9,4.2-5.4l0.1-0.8l0.8-0.1c2.1-0.2,4-0.2,6.1,0l0.8,0.1L29.9,1
      c0.4,2.4,1.9,4.4,4.2,5.4C36.3,7.3,39,7,40.9,5.6l0.6-0.5l0.6,0.5c1.6,1.3,3.1,2.7,4.3,4.3l0.5,0.6l-0.5,0.6
      c-1.5,2-1.8,4.5-0.8,6.8c0.9,2.3,2.9,3.8,5.4,4.2l0.8,0.1l0.1,0.8C51.9,24,52,25,52,26c0,1-0.1,2-0.2,3.1l-0.1,0.8L51,29.9
      c-2.4,0.4-4.4,1.9-5.4,4.2c-0.9,2.3-0.6,4.8,0.8,6.8l0.5,0.6l-0.5,0.6c-1.3,1.6-2.7,3.1-4.3,4.3l-0.6,0.5l-0.6-0.5
      c-1.9-1.4-4.5-1.8-6.8-0.8c-2.3,0.9-3.8,2.9-4.2,5.4l-0.1,0.8l-0.8,0.1C28,51.9,27,52,26,52z M23.9,49.9c1.4,0.1,2.8,0.1,4.2,0
      c0.7-2.8,2.6-5,5.2-6.2c2.6-1.1,5.7-0.8,8.1,0.6c1.1-0.9,2.1-1.9,3-3c-1.5-2.4-1.7-5.4-0.6-8.1c1.1-2.7,3.4-4.6,6.2-5.3
      C50,27.4,50,26.7,50,26c0-0.7,0-1.4-0.1-2.1c-2.8-0.7-5-2.6-6.2-5.2s-0.9-5.6,0.6-8.1c-0.9-1.1-1.9-2.1-3-3
      C39,9.1,36,9.3,33.4,8.2c-2.7-1.1-4.6-3.4-5.2-6.2c-1.5-0.1-2.8-0.1-4.2,0c-0.7,2.8-2.6,5-5.2,6.2C16,9.3,13,9.1,10.6,7.6
      c-1.1,0.9-2.1,1.9-3,3C9.1,13,9.4,16,8.2,18.6c-1.1,2.7-3.4,4.6-6.2,5.2C2,24.6,2,25.3,2,26c0,0.7,0,1.4,0.1,2.1
      c2.8,0.7,5,2.6,6.2,5.3C9.4,36,9.1,39,7.6,41.4c0.9,1.1,1.9,2.1,3,3c2.4-1.5,5.5-1.7,8.1-0.6C21.3,44.9,23.2,47.1,23.9,49.9z
       M26,35.3c-5.1,0-9.3-4.2-9.3-9.3s4.2-9.3,9.3-9.3s9.3,4.2,9.3,9.3S31.1,35.3,26,35.3z M26,18.7c-4,0-7.3,3.3-7.3,7.3
      c0,4,3.3,7.3,7.3,7.3c4,0,7.3-3.3,7.3-7.3C33.3,22,30,18.7,26,18.7z"/>
  </g>
  <g>
    <path fill="#F9B514" d="M26,11.8c-7.8,0-14.2,6.3-14.2,14.2c0,7.8,6.3,14.2,14.2,14.2c7.8,0,14.2-6.3,14.2-14.2
      C40.2,18.2,33.8,11.8,26,11.8z M26,34.3c-4.6,0-8.3-3.7-8.3-8.3c0-4.6,3.7-8.3,8.3-8.3c4.6,0,8.3,3.7,8.3,8.3
      C34.3,30.6,30.6,34.3,26,34.3z"/>
    <path d="M26,41.2c-8.4,0-15.2-6.8-15.2-15.2c0-8.4,6.8-15.2,15.2-15.2S41.2,17.6,41.2,26C41.2,34.4,34.4,41.2,26,41.2z M26,12.8
      c-7.3,0-13.2,5.9-13.2,13.2c0,7.3,5.9,13.2,13.2,13.2c7.3,0,13.2-5.9,13.2-13.2C39.2,18.7,33.3,12.8,26,12.8z M26,35.3
      c-5.1,0-9.3-4.2-9.3-9.3s4.2-9.3,9.3-9.3s9.3,4.2,9.3,9.3S31.1,35.3,26,35.3z M26,18.7c-4,0-7.3,3.3-7.3,7.3c0,4,3.3,7.3,7.3,7.3
      c4,0,7.3-3.3,7.3-7.3C33.3,22,30,18.7,26,18.7z"/>
  </g>
</g>
</svg>
