<!-- Generator: Adobe Illustrator 18.1.1, SVG Export Plug-In  -->
<svg version="1.1"
   xmlns="http://www.w3.org/2000/svg" xmlns:xlink="http://www.w3.org/1999/xlink" xmlns:a="http://ns.adobe.com/AdobeSVGViewerExtensions/3.0/"
   x="0px" y="0px" width="46px" height="47px" viewBox="0 0 46 47" enable-background="new 0 0 46 47" xml:space="preserve">
<defs>
</defs>
<g>
  <g>
    <path fill="#FFFFFF" d="M43.2,13.7L24.8,1.5c-1.1-0.7-2.5-0.7-3.6,0L2.8,13.7c-1.1,0.7-1.8,2-1.8,3.3v26.8C1,45,2,46,3.1,46h39.7
      c1.2,0,2.1-1,2.1-2.1V17.1C45,15.7,44.4,14.5,43.2,13.7z"/>
    <path d="M42.9,47H3.1C1.4,47,0,45.6,0,43.8V17.1c0-1.7,0.8-3.2,2.2-4.2L20.7,0.7c1.4-0.9,3.3-0.9,4.7,0l18.4,12.2
      c1.4,0.9,2.2,2.5,2.2,4.2v26.8C46,45.6,44.6,47,42.9,47z M23,2c-0.4,0-0.9,0.1-1.2,0.4L3.3,14.6C2.5,15.1,2,16.1,2,17.1v26.8
      C2,44.5,2.5,45,3.1,45h39.7c0.6,0,1.1-0.5,1.1-1.1V17.1c0-1-0.5-1.9-1.3-2.5L24.3,2.4C23.9,2.1,23.5,2,23,2z"/>
  </g>
  <g>
    <rect x="4.5" y="8" fill="#F9B514" width="37.1" height="33.8"/>
    <path d="M42.6,42.8H3.5V7h39.1V42.8z M5.5,40.8h35.1V9H5.5V40.8z"/>
  </g>
  <g>
    <rect x="10.2" y="15.2" width="25.6" height="2"/>
    <rect x="10.2" y="20.3" width="25.6" height="2"/>
    <rect x="10.2" y="25.4" width="25.6" height="2"/>
  </g>
  <g>
    <polygon fill="#FFFFFF" points="45,17.1 24.8,30.5 45,43.8     "/>
    <path d="M45,44.8c-0.2,0-0.4-0.1-0.6-0.2L24.3,31.3c-0.3-0.2-0.4-0.5-0.4-0.8c0-0.3,0.2-0.6,0.4-0.8l20.2-13.4
      c0.3-0.2,0.7-0.2,1,0c0.3,0.2,0.5,0.5,0.5,0.9v26.8c0,0.4-0.2,0.7-0.5,0.9C45.4,44.8,45.2,44.8,45,44.8z M26.6,30.5L44,42V18.9
      L26.6,30.5z"/>
  </g>
  <g>
    <polygon fill="#FFFFFF" points="1,17.1 21.2,30.5 1,43.8     "/>
    <path d="M1,44.8c-0.2,0-0.3,0-0.5-0.1C0.2,44.6,0,44.2,0,43.8V17.1c0-0.4,0.2-0.7,0.5-0.9c0.3-0.2,0.7-0.2,1,0l20.2,13.4
      c0.3,0.2,0.4,0.5,0.4,0.8c0,0.3-0.2,0.6-0.4,0.8L1.6,44.7C1.4,44.8,1.2,44.8,1,44.8z M2,18.9V42l17.4-11.5L2,18.9z"/>
  </g>
  <g>
    <path fill="#FFFFFF" d="M3.1,46h39.7c1.2,0,2.1-1,2.1-2.1L24.8,30.5c-1.1-0.7-2.5-0.7-3.6,0L1,43.8C1,45,2,46,3.1,46z"/>
    <path d="M42.9,47H3.1C1.4,47,0,45.6,0,43.8v-0.5l20.7-13.7c1.4-0.9,3.3-0.9,4.7,0L46,43.3v0.5C46,45.6,44.6,47,42.9,47z M2.1,44.3
      c0.2,0.4,0.6,0.7,1,0.7h39.7c0.5,0,0.9-0.3,1-0.7l-19.7-13c-0.7-0.5-1.7-0.5-2.5,0L2.1,44.3z"/>
  </g>
</g>
</svg>
