<!-- Generator: Adobe Illustrator 18.1.1, SVG Export Plug-In  -->
<svg version="1.1"
   xmlns="http://www.w3.org/2000/svg" xmlns:xlink="http://www.w3.org/1999/xlink" xmlns:a="http://ns.adobe.com/AdobeSVGViewerExtensions/3.0/"
   x="0px" y="0px" width="37px" height="43.9px" viewBox="0 0 37 43.9" enable-background="new 0 0 37 43.9" xml:space="preserve">
<defs>
</defs>
<g>
  <g>
    <rect x="17" y="5.4" fill="#F9B514" width="3" height="3.5"/>
    <path d="M21,10h-5V4.4h5V10z M18,8h1V6.4h-1V8z"/>
  </g>
  <g>
    <path fill="#F9B514" d="M20.5,1h-4c-0.6,0-1.1,0.5-1.1,1.1v2.1c0,0.6,0.5,1.1,1.1,1.1h4c0.6,0,1.1-0.5,1.1-1.1V2.1
      C21.7,1.5,21.2,1,20.5,1z"/>
    <path d="M20.5,6.4h-4c-1.2,0-2.1-1-2.1-2.1V2.1c0-1.2,1-2.1,2.1-2.1h4c1.2,0,2.1,1,2.1,2.1v2.1C22.7,5.5,21.7,6.4,20.5,6.4z
       M16.5,2c-0.1,0-0.1,0.1-0.1,0.1v2.1c0,0.1,0.1,0.1,0.1,0.1h4c0.1,0,0.1-0.1,0.1-0.1V2.1c0-0.1-0.1-0.1-0.1-0.1H16.5z"/>
  </g>
  <g>
    <rect x="26.3" y="8" transform="matrix(0.866 0.5 -0.5 0.866 8.5242 -12.5552)" fill="#F9B514" width="2.9" height="3.3"/>
    <path d="M28.5,13.1l-4.2-2.4l2.6-4.6l4.2,2.4L28.5,13.1z M27,10l0.7,0.4l0.6-1.1l-0.7-0.4L27,10z"/>
  </g>
  <g>
    <path fill="#F9B514" d="M32,5.7l-3.1-1.8c-0.5-0.3-1.1-0.1-1.4,0.4l-0.9,1.6C26.3,6.4,26.5,7,27,7.3l3.1,1.8
      c0.5,0.3,1.1,0.1,1.4-0.4l0.9-1.6C32.7,6.6,32.5,6,32,5.7z"/>
    <path d="M30.6,10.2L30.6,10.2c-0.4,0-0.7-0.1-1-0.3l-3.1-1.8C26,7.9,25.7,7.5,25.5,7c-0.1-0.5-0.1-1.1,0.2-1.5l0.9-1.6
      c0.5-0.9,1.8-1.3,2.7-0.7l3.1,1.8c1,0.6,1.3,1.8,0.7,2.7l-0.9,1.6C31.9,9.8,31.3,10.2,30.6,10.2z M28.4,4.8l-1,1.6l3.1,1.8
      c0,0,0,0,0,0l0.9-1.6L28.4,4.8z"/>
  </g>
  <g>
    <circle fill="#EE5123" cx="18.5" cy="25.4" r="17.5"/>
    <path d="M18.5,43.9C8.3,43.9,0,35.6,0,25.4C0,15.2,8.3,6.9,18.5,6.9S37,15.2,37,25.4C37,35.6,28.7,43.9,18.5,43.9z M18.5,8.9
      C9.4,8.9,2,16.3,2,25.4c0,9.1,7.4,16.5,16.5,16.5c9.1,0,16.5-7.4,16.5-16.5C35,16.3,27.6,8.9,18.5,8.9z"/>
  </g>
  <g>
    <circle fill="#FFFFFF" cx="18.5" cy="25.4" r="13"/>
    <path d="M18.5,39.4c-7.7,0-14-6.3-14-14s6.3-14,14-14s14,6.3,14,14S26.2,39.4,18.5,39.4z M18.5,13.4c-6.6,0-12,5.4-12,12
      s5.4,12,12,12s12-5.4,12-12S25.1,13.4,18.5,13.4z"/>
  </g>
  <path d="M25.7,33.1c-0.2,0-0.5-0.1-0.7-0.3l-7.2-6.6c-0.4-0.4-0.4-1-0.1-1.4c0.4-0.4,1-0.4,1.4-0.1l7.2,6.6c0.4,0.4,0.4,1,0.1,1.4
    C26.2,33,26,33.1,25.7,33.1z"/>
  <g>
    <circle fill="#F9B514" cx="18.5" cy="25.4" r="2"/>
    <path d="M18.5,28.4c-1.7,0-3-1.4-3-3c0-1.7,1.4-3,3-3c1.7,0,3,1.4,3,3C21.5,27.1,20.2,28.4,18.5,28.4z M18.5,24.4
      c-0.6,0-1,0.5-1,1c0,0.6,0.5,1,1,1c0.6,0,1-0.5,1-1C19.5,24.9,19.1,24.4,18.5,24.4z"/>
  </g>
</g>
</svg>
