<!-- Generator: Adobe Illustrator 18.1.1, SVG Export Plug-In  -->
<svg version="1.1"
   xmlns="http://www.w3.org/2000/svg" xmlns:xlink="http://www.w3.org/1999/xlink" xmlns:a="http://ns.adobe.com/AdobeSVGViewerExtensions/3.0/"
   x="0px" y="0px" width="65.2px" height="59.6px" viewBox="0 0 65.2 59.6" enable-background="new 0 0 65.2 59.6"
   xml:space="preserve">
<defs>
</defs>
<g>
  <g>
    <path fill="#EE5123" d="M13.2,39.3v15.5c0,2.1,1.7,3.8,3.8,3.8h7.1V39.3H13.2z"/>
    <path d="M25.1,59.6H17c-2.6,0-4.8-2.1-4.8-4.8V38.3h12.9V59.6z M14.2,40.3v14.5c0,1.5,1.2,2.8,2.8,2.8h6.1V40.3H14.2z"/>
  </g>
  <g>
    <path fill="#FFFFFF" d="M59.9,21.2v10.5c2.3,0,4.2-1.9,4.2-4.2v-2C64.2,23.1,62.3,21.2,59.9,21.2z"/>
    <path d="M59.9,32.7h-1V20.2h1c2.9,0,5.2,2.4,5.2,5.3v2C65.2,30.4,62.8,32.7,59.9,32.7z M60.9,22.4v8.2c1.3-0.4,2.2-1.6,2.2-3.1v-2
      C63.2,24,62.2,22.8,60.9,22.4z"/>
  </g>
  <g>
    <path fill="#FFFFFF" d="M3.4,21.7c-1.3,0-2.4,1.1-2.4,2.4v4.7c0,1.3,1.1,2.4,2.4,2.4h1v-9.6H3.4z"/>
    <path d="M5.5,32.3h-2c-1.9,0-3.4-1.5-3.4-3.4v-4.7c0-1.9,1.5-3.4,3.4-3.4h2V32.3z M3.4,22.7c-0.8,0-1.4,0.6-1.4,1.4v4.7
      c0,0.8,0.6,1.4,1.4,1.4h0L3.4,22.7z"/>
  </g>
  <g>
    <path fill="#EE5123" d="M12.3,13.6c-4.7,0-8.4,3.8-8.4,8.4v8.8c0,4.7,3.8,8.4,8.4,8.4h16.1V13.6H12.3z"/>
    <path d="M29.3,40.3H12.3c-5.2,0-9.4-4.2-9.4-9.4v-8.8c0-5.2,4.2-9.4,9.4-9.4h17.1V40.3z M12.3,14.6c-4.1,0-7.4,3.3-7.4,7.4v8.8
      c0,4.1,3.3,7.4,7.4,7.4h15.1V14.6H12.3z"/>
  </g>
  <g>
    <polygon fill="#FFFFFF" points="28.3,13.6 28.3,39.3 52.8,49 52.8,3.9    "/>
    <path d="M53.8,50.5L27.3,40V13L53.8,2.4V50.5z M29.3,38.6l22.5,8.9V5.4l-22.5,8.9V38.6z"/>
  </g>
  <g>
    <path fill="#F9B514" d="M58.3,1h-2.9c-1.4,0-2.5,1.1-2.5,2.5v45.9c0,1.4,1.1,2.5,2.5,2.5h2.9c1.4,0,2.5-1.1,2.5-2.5V3.5
      C60.8,2.1,59.7,1,58.3,1z"/>
    <path d="M58.3,52.9h-2.9c-1.9,0-3.5-1.6-3.5-3.5V3.5c0-1.9,1.6-3.5,3.5-3.5h2.9c1.9,0,3.5,1.6,3.5,3.5v45.9
      C61.8,51.4,60.2,52.9,58.3,52.9z M55.3,2c-0.8,0-1.5,0.7-1.5,1.5v45.9c0,0.8,0.7,1.5,1.5,1.5h2.9c0.8,0,1.5-0.7,1.5-1.5V3.5
      c0-0.8-0.7-1.5-1.5-1.5H55.3z"/>
  </g>
</g>
</svg>
