<!-- Generator: Adobe Illustrator 18.1.1, SVG Export Plug-In  -->
<svg version="1.1"
   xmlns="http://www.w3.org/2000/svg" xmlns:xlink="http://www.w3.org/1999/xlink" xmlns:a="http://ns.adobe.com/AdobeSVGViewerExtensions/3.0/"
   x="0px" y="0px" width="38.6px" height="38.6px" viewBox="0 0 38.6 38.6" enable-background="new 0 0 38.6 38.6"
   xml:space="preserve">
<defs>
</defs>
<g>
  <g>
    <path fill="#FFFFFF" d="M37.6,19.3c0,4-1.9,5.2-4.1,5.2c-1.8,0-3.5-0.9-5.5-0.9c-3,0-4.4,2-4.4,4.8c0,1.4,0.2,3.3,0.2,4.3
      c0,3.1-1.2,4.9-4.5,4.9C9.2,37.6,1,29.4,1,19.3C1,9.2,9.2,1,19.3,1C29.4,1,37.6,9.2,37.6,19.3z"/>
    <path d="M19.3,38.6C8.6,38.6,0,29.9,0,19.3C0,8.6,8.6,0,19.3,0c10.6,0,19.3,8.6,19.3,19.3c0,5.4-3.2,6.2-5.1,6.2
      c-1,0-1.9-0.2-2.8-0.5c-0.9-0.2-1.8-0.5-2.7-0.5c-2.8,0-3.4,2.1-3.4,3.8c0,0.7,0.1,1.7,0.1,2.5c0.1,0.7,0.1,1.4,0.1,1.9
      C24.8,36.6,22.9,38.6,19.3,38.6z M19.3,2C9.7,2,2,9.8,2,19.3c0,9.5,7.7,17.3,17.3,17.3c2.5,0,3.5-1.1,3.5-3.9c0-0.5,0-1.1-0.1-1.8
      c-0.1-0.8-0.1-1.8-0.1-2.6c0-3.6,2.1-5.8,5.4-5.8c1.2,0,2.3,0.3,3.2,0.5c0.8,0.2,1.6,0.4,2.3,0.4c1.3,0,3.1-0.4,3.1-4.2
      C36.6,9.8,28.8,2,19.3,2z"/>
  </g>
  <g>
    <circle fill="#F9B514" cx="24.1" cy="9.1" r="2.9"/>
    <path d="M24.1,13c-2.1,0-3.9-1.7-3.9-3.9c0-2.1,1.7-3.8,3.9-3.8c2.1,0,3.8,1.7,3.8,3.8C27.9,11.3,26.2,13,24.1,13z M24.1,7.3
      c-1,0-1.9,0.8-1.9,1.8c0,1,0.8,1.9,1.9,1.9c1,0,1.8-0.8,1.8-1.9C25.9,8.1,25.1,7.3,24.1,7.3z"/>
  </g>
  <g>
    <circle fill="#EE5123" cx="15.5" cy="8.7" r="2.9"/>
    <path d="M15.5,12.5c-2.1,0-3.8-1.7-3.8-3.8c0-2.1,1.7-3.8,3.8-3.8c2.1,0,3.9,1.7,3.9,3.8C19.4,10.8,17.6,12.5,15.5,12.5z
       M15.5,6.8c-1,0-1.8,0.8-1.8,1.8s0.8,1.8,1.8,1.8c1,0,1.9-0.8,1.9-1.8S16.5,6.8,15.5,6.8z"/>
  </g>
  <g>
    <circle fill="#52AEE1" cx="9.1" cy="14.6" r="2.8"/>
    <path d="M9.1,18.5c-2.1,0-3.8-1.7-3.8-3.9c0-2.1,1.7-3.8,3.8-3.8c2.1,0,3.8,1.7,3.8,3.8C12.9,16.7,11.2,18.5,9.1,18.5z M9.1,12.8
      c-1,0-1.8,0.8-1.8,1.8c0,1,0.8,1.9,1.8,1.9s1.8-0.8,1.8-1.9C10.9,13.6,10.1,12.8,9.1,12.8z"/>
  </g>
  <g>
    <circle fill="#F9B514" cx="9.1" cy="24" r="2.8"/>
    <path d="M9.1,27.8c-2.1,0-3.8-1.7-3.8-3.8c0-2.1,1.7-3.9,3.8-3.9c2.1,0,3.8,1.7,3.8,3.9C12.9,26.1,11.2,27.8,9.1,27.8z M9.1,22.1
      c-1,0-1.8,0.8-1.8,1.9c0,1,0.8,1.8,1.8,1.8s1.8-0.8,1.8-1.8C10.9,22.9,10.1,22.1,9.1,22.1z"/>
  </g>
  <g>
    <circle fill="#EE5123" cx="15.5" cy="29.9" r="2.9"/>
    <path d="M15.5,33.7c-2.1,0-3.8-1.7-3.8-3.8c0-2.1,1.7-3.8,3.8-3.8c2.1,0,3.9,1.7,3.9,3.8C19.4,32,17.6,33.7,15.5,33.7z M15.5,28
      c-1,0-1.8,0.8-1.8,1.8c0,1,0.8,1.8,1.8,1.8c1,0,1.9-0.8,1.9-1.8C17.4,28.9,16.5,28,15.5,28z"/>
  </g>
  <g>
    <circle fill="#52AEE1" cx="29.9" cy="15.7" r="2.9"/>
    <path d="M29.9,19.5c-2.1,0-3.8-1.7-3.8-3.9c0-2.1,1.7-3.8,3.8-3.8c2.1,0,3.9,1.7,3.9,3.8C33.8,17.8,32,19.5,29.9,19.5z M29.9,13.8
      c-1,0-1.8,0.8-1.8,1.8c0,1,0.8,1.9,1.8,1.9c1,0,1.9-0.8,1.9-1.9C31.8,14.6,30.9,13.8,29.9,13.8z"/>
  </g>
</g>
</svg>
