<!-- Generator: Adobe Illustrator 18.1.1, SVG Export Plug-In  -->
<svg version="1.1"
   xmlns="http://www.w3.org/2000/svg" xmlns:xlink="http://www.w3.org/1999/xlink" xmlns:a="http://ns.adobe.com/AdobeSVGViewerExtensions/3.0/"
   x="0px" y="0px" width="89.6px" height="78.4px" viewBox="0 0 89.6 78.4" enable-background="new 0 0 89.6 78.4"
   xml:space="preserve">
<defs>
</defs>
<g>
  <g>
    <path fill="#52AEE1" d="M85.6,62.1c-0.3-1.9-1.5-3.6-3.2-4.6L53.7,41.1H35.9L7.2,57.5c-1.7,1-2.9,2.6-3.2,4.6
      c-0.2,1.1-1.5,8.4-2.8,15.3h87.2C87.1,70.5,85.8,63.2,85.6,62.1z"/>
    <path d="M89.6,78.4H0l1.1-6c1-5.1,1.8-9.6,1.9-10.4c0.3-2.2,1.7-4.1,3.7-5.3l28.9-16.6H54l0.2,0.1l28.6,16.5
      c2,1.1,3.4,3.1,3.7,5.3c0.1,0.8,1,5.3,1.9,10.4L89.6,78.4z M2.4,76.4h84.8l-0.7-3.7c-1-5.2-1.8-9.6-1.9-10.5
      c-0.3-1.6-1.3-3-2.7-3.8L53.5,42.1H36.1L7.7,58.4c-1.5,0.8-2.5,2.3-2.7,3.8c-0.1,0.9-1,5.3-1.9,10.5L2.4,76.4z"/>
  </g>
  <g>
    <path fill="#FFFFFF" d="M56.2,42.5l-2.5-1.4H35.9l-2.5,1.4C32,53,33.8,64.6,37.7,77.4h14.2C55.8,64.6,57.6,53,56.2,42.5z"/>
    <path d="M52.6,78.4H37l-0.2-0.7c-4.2-13.8-5.7-25.3-4.4-35.3l0.1-0.5l3.1-1.8H54l3.1,1.8l0.1,0.5c1.3,10-0.1,21.6-4.4,35.3
      L52.6,78.4z M38.5,76.4h12.7c3.9-12.9,5.3-23.9,4.1-33.3l-1.8-1H36.1l-1.8,1C33.2,52.5,34.5,63.4,38.5,76.4z"/>
  </g>
  <g>
    <path fill="#52AEE1" d="M78.7,65.5c-1.1,3.8-2.2,7.7-3.1,11.8h0.5C76.8,73.3,77.7,69.4,78.7,65.5z"/>
    <path d="M76.9,78.4h-2.6l0.3-1.2c0.9-4,2-7.9,3.2-11.9l1.9,0.5c-1.1,4.4-1.9,8.2-2.6,11.8L76.9,78.4z"/>
  </g>
  <g>
    <path fill="#52AEE1" d="M10.9,65.5c0.9,3.8,1.8,7.8,2.6,11.8h0.5C13.1,73.3,12,69.4,10.9,65.5z"/>
    <path d="M15.3,78.4h-2.6l-0.2-0.8c-0.7-3.6-1.5-7.4-2.6-11.8l1.9-0.5c1.1,4,2.2,7.8,3.2,11.9L15.3,78.4z"/>
  </g>
  <g>
    <polygon fill="#FFFFFF" points="44.8,50.5 53.3,54.9 44.8,48.4 36.3,54.9     "/>
    <polygon points="52.9,55.8 44.8,51.6 36.7,55.8 35.7,54.1 44.8,47.2 53.9,54.1    "/>
  </g>
  <g>
    <path fill="#F9B514" d="M47.4,54.4l1.9-2.5l-4.5-3.4l-4.5,3.4l1.9,2.5c-0.6,5.1-1.4,14.1-2,23h9.1C48.8,68.5,47.9,59.4,47.4,54.4z
      "/>
    <path d="M50.4,78.4H39.2l0.1-1.1c0.5-8.7,1.4-17.5,1.9-22.7l-2.3-3l5.9-4.4l5.9,4.4l-2.3,3c0.6,5.1,1.4,14,1.9,22.7L50.4,78.4z
       M41.3,76.4h6.9c-0.6-8.5-1.3-17.1-1.9-21.9l0-0.4l1.5-2.1l-3.1-2.3L41.7,52l1.5,2.1l0,0.4C42.7,59.3,41.9,67.9,41.3,76.4z"/>
  </g>
  <g>
    <path fill="#52AEE1" d="M67.2,52l-4.1-3.1l1.3-1.7l-8.2-4.7c1.4,10.6-0.4,22.1-4.3,34.9h6.3C63.2,68.8,67.2,59.7,67.2,52z"/>
    <path d="M58.7,78.4h-8.2l0.4-1.3c4.2-13.5,5.6-24.8,4.3-34.5l-0.3-2l10.9,6.3l-1.4,1.8l3.7,2.8V52c0,6.8-3.1,15.5-9.2,25.9
      L58.7,78.4z M53.2,76.4h4.4c5.6-9.6,8.5-17.6,8.6-23.9l-4.5-3.4l1.2-1.6l-5.5-3.2C58.3,53.6,56.9,64.1,53.2,76.4z"/>
  </g>
  <g>
    <path fill="#52AEE1" d="M33.4,42.5l-8.2,4.7l1.3,1.7L22.4,52c0,7.6,4,16.8,9.1,25.4h6.3C33.8,64.6,32,53,33.4,42.5z"/>
    <path d="M39.1,78.4h-8.2l-0.3-0.5c-6.1-10.3-9.2-19.1-9.2-25.9v-0.5l3.7-2.8l-1.4-1.8l10.9-6.3l-0.3,2c-1.3,9.7,0.1,21,4.3,34.5
      L39.1,78.4z M32,76.4h4.4c-3.7-12.3-5-22.8-4.2-32.1l-5.5,3.2l1.2,1.6l-4.5,3.4C23.5,58.8,26.4,66.8,32,76.4z"/>
  </g>
  <g>
    <path fill="#52AEE1" d="M50.3,1H22.3l2,1.8h-5c0.4,6,2.9,10.1,6.2,11.7l0.5,11.5h37.5L64,15.2c0.1-3.7-1.2-7.3-3.8-10
      C57.6,2.5,54,1,50.3,1z"/>
    <path d="M64.5,27.1H25.1l-0.5-11.9c-3.6-2-5.8-6.5-6.2-12.2l-0.1-1.1h3.5l-2-1.8h30.5c4,0,7.8,1.6,10.6,4.5
      c2.8,2.9,4.2,6.8,4.1,10.8L64.5,27.1z M27,25.1h35.5l0.4-9.9c0.1-3.4-1.2-6.8-3.5-9.3C57,3.4,53.7,2,50.3,2H24.9l2,1.8h-6.5
      c0.6,4.7,2.6,8.4,5.6,9.8l0.5,0.3L27,25.1z"/>
  </g>
  <g>
    <path fill="#FFFFFF" d="M44.8,48c2.3,0,4.5-0.6,6.5-1.9l6.8-4.4c1.3-0.8,2.1-2.2,2.3-3.6l0.7-6.1c1.2-1.1,3-3.5,3-5.8
      c0-1.8-0.6-3.3-3-4v-6.9H28.6v6.9c-2.3,0.7-3,2.2-3,4c0,2.3,1.7,4.7,3,5.8l0.7,6.1c0.2,1.5,1,2.8,2.3,3.6l6.8,4.4
      C40.3,47.4,42.5,48,44.8,48z"/>
    <path d="M44.8,49L44.8,49c-2.5,0-4.9-0.7-7-2.1L31,42.6c-1.5-1-2.5-2.6-2.7-4.4l-0.7-5.8c-1.2-1.2-3-3.6-3-6.3c0-2.3,1-3.9,3-4.7
      v-7.2h34.5v7.2c2,0.8,3,2.4,3,4.7c0,2.7-1.8,5.1-3,6.3l-0.7,5.8c-0.2,1.8-1.2,3.4-2.7,4.4L51.8,47C49.7,48.3,47.3,49,44.8,49z
       M29.6,16.3v6.7l-0.7,0.2c-1.6,0.5-2.2,1.4-2.2,3.1c0,2,1.6,4.2,2.6,5.1l0.3,0.3l0.8,6.5c0.1,1.2,0.8,2.3,1.8,2.9l6.8,4.4
      c1.8,1.1,3.8,1.7,5.9,1.7c2.1,0,4.2-0.6,5.9-1.7l6.8-4.4c1-0.7,1.7-1.7,1.8-2.9l0.8-6.5l0.3-0.3c1-0.9,2.6-3.1,2.6-5.1
      c0-1.7-0.6-2.6-2.2-3.1l-0.7-0.2v-6.7H29.6z"/>
  </g>
  <path d="M62.6,22.4c0-0.7-0.6-0.9-0.9-1c-0.8-0.2-4-0.8-7.2-0.8c-2.6,0-4.4,0.4-6,0.8c-1.3,0.3-2.4,0.6-3.7,0.6
    c-1.3,0-2.4-0.3-3.7-0.6c-1.6-0.4-3.4-0.8-6-0.8c-3.3,0-6.5,0.6-7.2,0.8c-0.2,0.1-0.8,0.3-0.9,1c0,0.5,0,1.2,0.1,1.5
    c0.1,0.6,0.5,0.8,0.8,0.9c0.3,0.1,0.4,0.2,0.6,0.7c0.1,0.5,0.3,1.2,0.5,2.4l0,0.1c0.3,1.3,0.5,2.6,1.4,3.5c1.4,1.4,3.6,1.7,5.1,1.7
    c2.5,0,4.2-0.6,5.6-2c1.3-1.3,1.9-2.8,2.6-4.9c0.2-0.8,0.3-0.9,1.1-0.9c0.8,0,0.8,0.1,1.1,1c0.7,2,1.2,3.5,2.5,4.8
    c1.4,1.4,3.1,2,5.6,2c1.5,0,3.7-0.3,5.1-1.7c0.9-0.9,1.2-2.2,1.4-3.5l0-0.2c0.2-1.1,0.4-1.8,0.5-2.3c0.2-0.5,0.3-0.6,0.6-0.7
    c0.3-0.1,0.7-0.3,0.8-0.9C62.6,23.6,62.6,22.9,62.6,22.4z M39.7,29.8c-1,1-2.2,1.4-4,1.4c-1.2,0-2.3-0.3-3-0.8
    c-0.7-0.5-1-1-1.2-2.2c-0.2-0.8-0.3-2.1-0.3-2.7c0-1.5,0.3-2.2,2.1-2.6c0.6-0.1,1.4-0.2,2.2-0.2c1.5,0,3,0.2,4.2,0.6
    c1.2,0.4,1.8,1.1,1.8,1.9C41.4,27,40.8,28.7,39.7,29.8z M58.2,28.2c-0.3,1.2-0.5,1.8-1.2,2.2c-0.7,0.5-1.9,0.8-3,0.8
    c-1.9,0-3.1-0.4-4-1.4c-1.1-1.1-1.7-2.8-1.7-4.6c0-0.9,0.6-1.5,1.8-1.9c1.1-0.4,2.7-0.6,4.2-0.6c0.9,0,1.6,0.1,2.2,0.2
    c1.8,0.4,2.1,1.1,2.1,2.6C58.6,26.1,58.4,27.4,58.2,28.2z"/>
</g>
</svg>
